<svg width="627" height="262" viewBox="0 0 627 262" fill="none" xmlns="http://www.w3.org/2000/svg">
<g clip-path="url(#clip0_0_811)">
<g clip-path="url(#clip1_0_811)">
<path d="M533.583 161.256C524.221 161.256 515.192 162.64 506.674 165.229C506.035 74.641 432.575 1.40625 342.053 1.40625C269.053 1.40625 207.154 49.0589 185.592 114.988C167.713 105.016 147.148 99.3003 125.227 99.3003C56.5754 99.3003 0.942871 155.053 0.942871 223.853C0.942871 292.653 56.5754 348.406 125.227 348.406H533.583C585.148 348.406 626.943 306.521 626.943 254.844C626.943 203.167 585.148 161.282 533.583 161.282V161.256Z" fill="#0F2C23"/>
</g>
</g>
<defs>
<clipPath id="clip0_0_811">
<rect width="626" height="348" fill="white" transform="translate(0.942871 0.90625)"/>
</clipPath>
<clipPath id="clip1_0_811">
<rect width="626" height="347" fill="white" transform="translate(0.942871 1.40625)"/>
</clipPath>
</defs>
</svg>
