<svg width="231" height="281" viewBox="0 0 231 281" fill="none" xmlns="http://www.w3.org/2000/svg">
<g clip-path="url(#clip0_0_632)">
<mask id="mask0_0_632" style="mask-type:luminance" maskUnits="userSpaceOnUse" x="0" y="-3" width="231" height="286">
<path d="M230.943 -2.13379H0.942871V282.196H230.943V-2.13379Z" fill="white"/>
</mask>
<g mask="url(#mask0_0_632)">
<path d="M76.9776 20.8843C84.4198 31.3443 88.9665 40.7746 91.7458 47.5943C96.0968 58.268 96.9398 64.5419 97.1608 68.8309C97.2359 70.2624 97.3156 72.9063 96.7053 79.1905C95.7418 89.1172 95.8242 93.4482 90.0845 113.083C84.4069 132.5 81.9983 133.507 80.6587 133.63C76.9699 133.965 73.2552 127.683 71.8229 123.816C69.9166 118.665 70.589 113.819 71.6245 106.366C71.7766 105.272 71.9208 104.41 72.0599 103.673C72.485 101.413 72.8559 99.7677 72.8971 99.5957C73.2861 97.9142 73.9507 90.2427 70.571 79.7518C66.8048 68.0612 60.0864 59.29 56.0677 54.656L76.9776 20.8869V20.8843Z" fill="#F9B0C3"/>
<path d="M99.5848 87.955L127.69 109.114C131.386 111.897 132.123 117.147 129.341 120.839L74.3912 193.732C71.6064 197.426 66.3539 198.162 62.6598 195.382L34.5552 174.223C30.8585 171.439 30.1218 166.19 32.9039 162.498L87.8536 89.6053C90.6383 85.9108 95.8912 85.1746 99.5848 87.955Z" fill="#2D876B"/>
<path d="M119.145 128.595L79.0359 181.802C73.7137 188.861 63.6749 190.272 56.6113 184.953L46.253 177.155C39.1895 171.836 37.7779 161.803 43.0999 154.744L83.209 101.538C88.5312 94.4785 98.5697 93.0677 105.634 98.3866L115.992 106.185C123.056 111.503 124.467 121.536 119.145 128.595Z" fill="#51AF95"/>
<path d="M39.2512 158.843C45.1968 163.32 46.3843 171.764 41.9072 177.706C41.5723 178.149 41.2168 178.566 40.8407 178.955L34.5552 174.222C30.8585 171.44 30.1218 166.191 32.9039 162.499L36.7757 157.363C37.6361 157.757 38.4656 158.251 39.2512 158.843Z" fill="#2D876B"/>
<path d="M99.5848 87.9546L105.871 92.6864C105.6 93.1546 105.296 93.6137 104.964 94.0564C100.487 99.9975 92.0346 101.185 86.089 96.7105C85.3033 96.1183 84.6001 95.4564 83.9818 94.7383L87.8536 89.6023C90.6383 85.9079 95.8912 85.1717 99.5848 87.952V87.9546Z" fill="#2D876B"/>
<path d="M121.404 104.382L127.69 109.114C131.386 111.897 132.124 117.147 129.341 120.839L125.469 125.975C124.609 125.581 123.779 125.087 122.993 124.494C117.048 120.018 115.861 111.573 120.337 105.631C120.672 105.188 121.028 104.772 121.404 104.382Z" fill="#2D876B"/>
<path d="M76.1532 186.63C76.939 187.222 77.6422 187.883 78.2605 188.601L74.3886 193.737C71.6039 197.432 66.3513 198.168 62.6573 195.388L56.3717 190.656C56.6422 190.187 56.9462 189.729 57.2785 189.287C61.7582 183.345 70.2077 182.157 76.1532 186.632V186.63Z" fill="#2D876B"/>
<path d="M67.6884 197.469C65.8491 197.469 63.9943 196.895 62.4152 195.706L34.3105 174.547C30.4439 171.635 29.6658 166.12 32.5794 162.256L87.5291 89.3632C88.9407 87.4912 90.9964 86.2786 93.3196 85.9516C95.6441 85.6247 97.954 86.2219 99.8275 87.6328L127.932 108.793C131.798 111.704 132.576 117.218 129.663 121.083L74.7132 193.976C72.9899 196.261 70.3546 197.467 67.6884 197.469ZM94.562 86.6725C94.188 86.6725 93.8122 86.6982 93.4337 86.7523C91.3236 87.0484 89.456 88.1477 88.1757 89.8495L33.226 162.742C30.5804 166.251 31.2862 171.259 34.7974 173.903L62.902 195.063C66.4132 197.706 71.4236 197.003 74.0692 193.492L129.019 120.599C131.664 117.09 130.961 112.082 127.447 109.438L99.3431 88.279C97.9468 87.226 96.2797 86.6725 94.562 86.6725Z" fill="#3D3B3B"/>
<path d="M95.4783 156.018C103.408 148.093 103.408 135.245 95.4783 127.321C87.5493 119.396 74.6933 119.396 66.7639 127.321C58.8345 135.245 58.8345 148.093 66.7639 156.018C74.6933 163.942 87.5493 163.942 95.4783 156.018Z" fill="#2D876B"/>
<path d="M90.664 129.013C83.6701 123.746 73.7265 125.143 68.4585 132.135C63.1879 139.125 64.5867 149.063 71.5832 154.327C78.5772 159.594 88.5208 158.196 93.7886 151.207C99.0596 144.217 97.6605 134.28 90.664 129.015V129.013Z" fill="#51AF95"/>
<path d="M83.7551 25.0654L44.983 43.9335L36.786 -2.13379H81.2667L83.7551 25.0654Z" fill="#F9B0C3"/>
<path d="M59.7 30.335L59.1719 29.6656C64.0432 25.822 70.3751 23.9967 76.5448 24.6609L76.4546 25.5078C70.5039 24.8694 64.3987 26.6278 59.7025 30.335H59.7Z" fill="#773838"/>
<path d="M83.755 25.0625L96.6246 70.9625C96.6246 70.9625 75.6818 84.2028 75.6818 84.2054C68.139 89.6713 61.006 95.6259 53.8214 101.562C51.7116 103.305 54.9059 107.337 56.1862 108.591C56.1862 108.591 57.263 109.644 60.1198 113.245C61.158 114.553 62.3275 116.504 63.0668 119.429C63.4403 120.897 64.4914 122.094 65.9056 122.64C70.3931 124.375 76.4572 127.642 81.143 133.823C81.434 134.207 86.0735 140.447 87.4542 146.466C88.0751 149.172 88.039 151.834 86.6506 153.899C86.4213 154.238 85.4527 156.931 83.5387 156.424C78.6107 155.117 73.7343 153.294 68.9969 151.517C68.8192 151.45 68.6388 151.383 68.461 151.313C66.9309 150.735 65.4058 150.137 63.8886 149.52C51.3664 144.427 40.6372 130.818 32.8137 120.155C31.4175 118.253 28.8518 115.513 26.7316 111.153C26.2087 110.076 24.475 106.384 23.5013 101.321C21.1416 89.0529 25.0572 78.2224 28.1716 69.6108C29.4211 66.156 30.6163 63.6124 31.3557 62.1192C33.0404 58.7055 35.0059 55.4307 37.2342 52.3466C38.821 50.1479 41.428 45.6298 43.9319 44.4121C43.9448 44.4069 83.755 25.0625 83.755 25.0625Z" fill="#F9B0C3"/>
<path d="M68.8475 151.917C67.137 151.276 65.4136 150.602 63.7288 149.917C51.6601 145.01 41.155 132.245 32.4711 120.408C32.1594 119.984 31.7961 119.525 31.3737 118.992C29.9543 117.206 28.0119 114.757 26.3504 111.338C25.5158 109.619 23.9779 106.04 23.0866 101.401C20.7063 89.0183 24.6245 78.1768 27.775 69.4674C28.7306 66.8261 29.7766 64.3597 30.977 61.932C31.9507 59.9574 33.7643 56.2811 36.8967 52.0924C39.1868 49.0288 41.8118 46.1763 44.7048 43.6147L45.2715 44.2532C42.4224 46.7762 39.836 49.5875 37.5794 52.6022C34.4933 56.7291 32.7029 60.359 31.7421 62.3105C30.5571 64.7099 29.5215 67.1479 28.5787 69.7583C25.4643 78.3725 21.5899 89.0898 23.9263 101.242C24.7996 105.786 26.3015 109.286 27.1206 110.968C28.741 114.302 30.6524 116.706 32.0461 118.464C32.4556 118.982 32.8446 119.469 33.164 119.906C41.7783 131.648 52.1856 144.302 64.056 149.129C65.7356 149.811 67.4487 150.483 69.154 151.121L68.8552 151.919L68.8475 151.917Z" fill="#773838"/>
<path d="M84.0256 156.92C83.8375 156.92 83.6392 156.893 83.4305 156.84C78.415 155.509 73.3324 153.601 68.8475 151.92L69.1463 151.122C73.6106 152.798 78.6725 154.695 83.6469 156.016C84.8035 156.322 85.5764 155.094 86.1225 153.989C86.1972 153.838 86.2461 153.74 86.2951 153.668C90.6435 147.201 80.9009 134.218 80.8029 134.086C77.0832 129.182 72.0186 125.468 65.7511 123.045C64.2184 122.453 63.0591 121.142 62.6546 119.541C62.0596 117.193 61.0936 115.167 59.785 113.52C57.0441 110.062 55.9441 108.96 55.89 108.906H55.8874C55.7766 108.793 53.1568 106.153 53.3963 101.548C53.5896 97.8129 61.7479 93.0753 74.5921 91.938L74.6668 92.7873C62.8479 93.835 54.4216 98.2711 54.249 101.594C54.0301 105.822 56.4618 108.272 56.4877 108.299C56.6396 108.433 56.8895 108.712 57.4047 109.297C57.9791 109.951 58.9761 111.125 60.4573 112.992C61.8407 114.737 62.8607 116.871 63.4842 119.335C63.8217 120.669 64.785 121.76 66.0628 122.254C72.4823 124.736 77.6705 128.544 81.4882 133.577C81.9081 134.128 91.6941 147.18 87.0087 154.15C86.9906 154.178 86.9365 154.286 86.8927 154.373C86.5295 155.107 85.6305 156.927 84.0282 156.927L84.0256 156.92Z" fill="#773838"/>
<path d="M83.6598 79.3686L82.9359 78.9155C85.6871 74.5364 89.1004 67.3588 89.7495 58.0419C90.4374 48.1688 87.7428 40.2138 85.36 35.276L86.1277 34.9053C88.5543 39.9357 91.3003 48.0427 90.5996 58.1011C89.9376 67.5931 86.4599 74.9071 83.6572 79.3686H83.6598Z" fill="#773838"/>
<path d="M29.8255 99.6996C31.384 102.622 35.2275 108.831 42.8062 113.12C47.2963 115.661 51.5262 116.637 54.3907 117.044C56.0858 117.123 59.0637 117.01 62.1936 115.432C68.9223 112.043 70.5658 104.815 70.7951 103.723C70.7409 100.917 70.285 96.1772 67.8635 90.9389C64.8985 84.5229 60.5218 80.6895 58.1776 78.9028C49.6199 81.951 41.0623 84.9991 32.5047 88.0473L29.823 99.6969L29.8255 99.6996Z" fill="#F9B0C3"/>
<path d="M55.1713 117.489C54.906 117.489 54.6381 117.484 54.3727 117.471H54.3315C50.1583 116.873 46.2093 115.538 42.5951 113.493C35.6165 109.544 31.5928 103.921 29.4469 99.9025L30.1991 99.5013C32.2908 103.422 36.2116 108.903 43.015 112.752C46.5287 114.739 50.3696 116.042 54.4294 116.622C57.1059 116.742 59.7232 116.202 62.0004 115.053C68.1495 111.957 69.9502 105.631 70.3674 103.685C70.2773 99.3003 69.3035 95.0734 67.4771 91.1209C64.7671 85.2567 60.7846 81.4259 57.92 79.2479L58.4378 78.5708C61.3796 80.8106 65.4678 84.7418 68.2525 90.7659C70.1356 94.8416 71.1351 99.1998 71.2227 103.721V103.77L71.2124 103.816C70.7951 105.798 68.9223 112.522 62.3843 115.818C60.1972 116.92 57.7165 117.494 55.1688 117.494L55.1713 117.489Z" fill="#773838"/>
<path d="M37.0925 85.8202C38.6511 88.7419 42.4945 94.9519 50.0733 99.2413C54.5633 101.782 58.7932 102.757 61.6578 103.164C63.3528 103.244 66.3307 103.13 69.4606 101.553C76.1893 98.1646 77.8328 90.936 78.062 89.8439C78.3248 88.029 78.4047 86.0004 78.1316 83.8198C76.7869 73.1307 67.9485 66.7178 65.4472 65.0264C56.8895 68.0745 48.3318 71.1227 39.7742 74.1708L37.0925 85.8202Z" fill="#F9B0C3"/>
<path d="M62.4357 103.609C62.1704 103.609 61.9051 103.605 61.6371 103.591H61.5959C57.4227 102.995 53.4737 101.658 49.8594 99.6143C42.8784 95.6645 38.8572 90.0422 36.7113 86.0235L37.4635 85.6219C39.5552 89.5424 43.476 95.0234 50.2794 98.8727C53.7931 100.86 57.634 102.162 61.6938 102.742C64.3703 102.863 66.9876 102.323 69.2648 101.174C75.4629 98.0514 77.2428 91.6486 77.6422 89.7588C79.2496 83.4156 75.8054 76.7889 70.1304 75.27C66.0087 74.1681 61.292 76.0115 58.3913 79.8577L57.7087 79.3428C60.818 75.2237 65.9005 73.2568 70.3493 74.4462C76.4674 76.081 80.1873 83.1813 78.4742 89.9526C78.0595 91.9193 76.1893 98.6436 69.6513 101.936C67.4642 103.038 64.9835 103.612 62.4332 103.612L62.4357 103.609Z" fill="#773838"/>
<path d="M65.4755 74.9924C64.5094 74.9924 63.309 74.8277 62.0518 74.251C60.9776 73.7593 59.9988 73.0204 59.2234 72.1116L59.8726 71.5581C60.5681 72.3716 61.444 73.0358 62.4073 73.4761C63.9453 74.1789 65.3905 74.1969 66.3307 74.0913L66.4286 74.9384C66.1478 74.9692 65.8284 74.9924 65.478 74.9924H65.4755Z" fill="#773838"/>
<path d="M84.0256 156.92C83.8376 156.92 83.6392 156.894 83.4306 156.84C78.4124 155.506 73.3299 153.601 68.8476 151.92L68.6569 151.848C68.541 151.805 68.4251 151.76 68.3065 151.717L67.9562 151.583L68.0438 151.22C68.4431 149.559 69.4864 148.113 70.9058 147.255C72.5931 146.233 74.5638 145.921 76.4391 145.739C78.6288 145.522 80.8571 145.456 83.0622 145.54C84.8345 145.607 86.259 145.772 87.5471 146.058L87.8098 146.117L87.8691 146.38C88.6058 149.585 88.3147 152.198 87.0035 154.144C86.9855 154.172 86.9314 154.281 86.8876 154.368C86.5244 155.102 85.6253 156.922 84.023 156.922L84.0256 156.92ZM68.9763 151.055L69.1489 151.119C73.6132 152.792 78.6725 154.693 83.6495 156.013C84.801 156.319 85.579 155.092 86.1251 153.985C86.1998 153.833 86.2487 153.735 86.2977 153.663C87.4363 151.969 87.7068 149.673 87.0989 146.828C85.9319 146.588 84.6284 146.447 83.0312 146.388C80.8674 146.305 78.6777 146.37 76.5268 146.583C74.7492 146.758 72.8945 147.047 71.3515 147.982C70.2489 148.651 69.3807 149.781 68.9789 151.055H68.9763Z" fill="#773838"/>
<path d="M55.331 128.309L54.6561 127.787C55.7354 126.391 56.9977 125.145 58.4042 124.082C59.9061 122.947 61.5625 122.033 63.3245 121.361L63.6285 122.159C61.9412 122.8 60.3569 123.678 58.9195 124.761C57.5721 125.778 56.3665 126.971 55.331 128.309Z" fill="#773838"/>
<path d="M60.2513 129.818L59.4296 129.589C60.223 126.731 62.1009 124.159 64.5765 122.529L65.0454 123.243C62.7372 124.761 60.9907 127.158 60.2487 129.818H60.2513Z" fill="#773838"/>
<path d="M173.569 166.7C174.02 161.87 174.659 158.346 175.11 153.516C175.452 149.83 174.641 146.12 172.739 142.943C171.854 141.463 170.766 139.903 169.427 138.342C168.363 137.099 167.281 136.023 166.23 135.091C163.435 132.609 164.074 128.083 167.464 126.513C167.513 126.489 167.564 126.467 167.613 126.443C173.518 123.817 179.167 127.633 179.51 127.872C182.995 130.312 185.972 133.472 188.377 136.972C190.411 139.936 193.183 144.189 193.591 147.848C194.229 153.586 194.618 160.089 194.487 167.225C194.322 176.107 193.387 184.034 192.186 190.781C186.042 183.189 179.711 174.292 173.567 166.7H173.569Z" fill="#F9B0C3"/>
<path d="M192.583 190.877L191.795 190.686C192.384 188.248 192.673 185.684 192.951 183.202C193.101 181.876 193.256 180.504 193.454 179.158C193.768 175.818 193.925 172.453 194.09 168.89L194.139 167.827C194.139 167.277 194.144 166.71 194.149 166.144C194.19 159.854 194.226 153.912 192.969 147.778C191.993 142.575 188.997 137.496 183.809 132.241C177.876 126.232 172.421 124.409 167.595 126.824C165.13 128.058 164.821 130.407 164.857 131.719C165.086 132.987 165.527 133.853 166.245 134.442L166.266 134.46C169.239 137.24 171.64 140.294 173.605 143.798C175.211 146.66 175.892 149.912 175.578 153.204C175.321 155.908 175.117 157.97 174.919 159.893L174.113 159.811C174.311 157.89 174.514 155.828 174.772 153.13C175.071 150.002 174.425 146.913 172.9 144.196C170.977 140.77 168.631 137.784 165.725 135.063C164.862 134.349 164.316 133.294 164.058 131.834L164.054 131.777C163.969 129.226 165.13 127.158 167.237 126.103C172.34 123.549 178.27 125.478 184.389 131.674C189.692 137.047 192.761 142.263 193.768 147.623C195.04 153.835 195.004 159.815 194.963 166.148C194.961 166.713 194.955 167.279 194.953 167.848L194.904 168.927C194.737 172.498 194.579 175.873 194.26 179.253C194.061 180.607 193.908 181.971 193.758 183.29C193.476 185.794 193.183 188.387 192.583 190.871V190.877Z" fill="#773838"/>
<path d="M205.955 183.303C208.459 178.032 211.282 170.713 212.931 161.665C214.116 155.156 214.413 149.296 214.312 144.41C214.263 141.955 213.699 139.54 212.653 137.317C210.868 133.528 208.505 129.265 205.373 124.844C202.949 121.423 200.473 118.488 198.132 116.006C195.071 112.76 189.716 113.241 187.4 117.054C187.364 117.111 187.331 117.17 187.297 117.229C185.339 120.676 187.112 124.291 187.256 124.569C188.613 127.375 189.971 130.215 191.323 133.091C191.846 134.2 192.364 135.307 192.877 136.412C194.363 139.609 194.963 143.149 194.613 146.658C194.09 151.91 193.204 157.692 191.764 163.863C190.457 169.463 188.894 174.534 187.265 179.037C193.495 180.46 199.724 181.882 205.95 183.305L205.955 183.303Z" fill="#F9B0C3"/>
<path d="M206.182 183.771L186.733 179.327L186.89 178.898C188.675 173.965 190.185 168.872 191.375 163.77C192.686 158.145 193.642 152.376 194.213 146.617C194.556 143.177 193.966 139.71 192.513 136.581C192 135.476 191.483 134.373 190.96 133.262C189.628 130.431 188.258 127.566 186.892 124.746C186.686 124.342 184.898 120.633 186.947 117.029C186.98 116.966 187.018 116.905 187.054 116.843C188.206 114.946 190.143 113.72 192.372 113.486C194.652 113.244 196.857 114.062 198.428 115.728C201.05 118.508 203.498 121.497 205.705 124.61C208.498 128.551 210.96 132.768 213.021 137.145C214.096 139.429 214.667 141.869 214.719 144.403C214.837 150.205 214.368 156.037 213.331 161.739C211.962 169.254 209.605 176.568 206.324 183.48L206.184 183.773L206.182 183.771ZM187.807 178.74L205.729 182.834C208.907 176.076 211.195 168.929 212.532 161.589C213.56 155.941 214.023 150.162 213.907 144.416C213.859 141.998 213.312 139.665 212.287 137.488C210.246 133.155 207.81 128.977 205.043 125.076C202.858 121.992 200.434 119.033 197.838 116.282C196.442 114.801 194.481 114.076 192.457 114.289C190.484 114.498 188.768 115.582 187.747 117.26C187.714 117.314 187.683 117.368 187.652 117.423C185.782 120.712 187.542 124.232 187.619 124.379C188.99 127.207 190.36 130.076 191.692 132.913C192.214 134.022 192.732 135.13 193.245 136.233C194.759 139.491 195.373 143.107 195.018 146.688C194.44 152.481 193.479 158.287 192.161 163.945C190.999 168.932 189.533 173.906 187.804 178.735L187.807 178.74Z" fill="#773838"/>
<path d="M219.155 282.196H160.346L168.036 228.333H211.465L219.155 282.196Z" fill="#F9B0C3"/>
<path d="M229.309 133.528C229.068 135.16 228.609 143.066 227.903 158.892C227.641 164.807 227.746 164.718 226.329 187.11C225.937 193.312 225.405 200.845 222.073 210.074C218.145 220.964 212.395 228.654 208.413 233.193H170.421C167.408 230.399 164.054 226.839 160.799 222.406C160.259 221.667 159.738 220.933 159.241 220.202C154.483 213.213 151.279 205.293 149.687 196.991C148.684 191.767 147.229 187.641 145.907 184.559C144.287 180.787 141.59 175.62 140.263 173.036C139.756 172.05 139.449 171.437 139.475 171.424C139.53 171.396 139.805 171.846 139.527 171.378C136.158 165.726 136.121 162.871 136.121 162.871C136.307 160.745 137.912 158.526 139.928 157.54C140.076 157.467 140.225 157.403 140.375 157.344C145.004 155.558 150.511 160.727 151.435 161.597C157.163 166.97 159.57 175.666 163.35 178.606C164.659 179.623 166.106 180.365 166.106 180.365C166.116 180.37 166.127 180.376 166.14 180.383C168.177 181.411 170.668 180.45 171.498 178.326C173.551 173.054 173.6 168.44 173.564 166.7C184.061 167.408 194.556 168.116 205.051 168.826C205.992 161.345 209.268 137.57 216.115 126.726C217.372 124.736 219.902 120.727 223.348 120.772C225.737 120.805 227.831 122.775 228.879 124.599C230.43 127.295 229.83 129.998 229.305 133.53L229.309 133.528Z" fill="#F9B0C3"/>
<path d="M163.107 178.923C162.85 178.722 162.6 178.501 162.343 178.242C160.518 176.405 159.262 174.045 158.046 171.759C157.646 171.009 157.234 170.234 156.814 169.509C155.349 166.968 153.301 163.729 150.444 161.234C147.348 158.531 144.64 157.275 142.185 157.381C140.415 157.458 138.684 158.502 137.556 160.176C137.039 160.944 136.443 162.086 136.557 163.17C136.683 164.362 137.499 166.988 140.678 172.727C140.771 172.894 140.833 173.005 140.853 173.048L140.132 173.417C140.111 173.375 140.055 173.275 139.97 173.118C137.363 168.414 135.943 165.096 135.75 163.255C135.611 161.93 136.289 160.603 136.884 159.723C138.156 157.839 140.125 156.662 142.149 156.572C144.828 156.456 147.715 157.779 150.977 160.627C153.925 163.201 156.021 166.509 157.515 169.107C157.94 169.846 158.355 170.626 158.759 171.381C159.95 173.613 161.179 175.922 162.917 177.672C163.152 177.907 163.375 178.11 163.605 178.288L163.107 178.926V178.923Z" fill="#773838"/>
<path d="M205.458 168.875L204.654 168.774C206.097 157.285 209.461 136.514 215.777 126.51C217.04 124.513 219.655 120.367 223.295 120.367C223.315 120.367 223.338 120.367 223.359 120.367C226.007 120.401 228.181 122.561 229.238 124.399L228.534 124.803C227.509 123.019 225.507 121.207 223.348 121.179C223.33 121.179 223.313 121.179 223.297 121.179C220.103 121.179 217.648 125.069 216.463 126.943C210.229 136.816 206.892 157.452 205.458 168.875Z" fill="#773838"/>
<path d="M188.232 236.819C185.453 236.819 182.676 236.559 179.922 236.039L180.071 235.243C185.005 236.175 190.017 236.255 194.976 235.488C199.858 234.731 204.544 233.17 208.905 230.849L209.286 231.564C204.845 233.927 200.071 235.518 195.103 236.288C192.82 236.644 190.525 236.819 188.232 236.819Z" fill="#773838"/>
<path d="M175.272 175.633L174.996 174.872C181.258 172.613 187.755 170.912 194.306 169.81C202.957 168.356 211.798 167.931 220.579 168.543L220.523 169.352C211.803 168.742 203.029 169.164 194.44 170.609C187.938 171.703 181.487 173.391 175.272 175.633Z" fill="#773838"/>
<path d="M187.503 221.091L186.738 220.823C187.802 217.791 189.298 211.661 187.361 204.677C184.41 194.033 175.669 188.911 173.062 187.595L173.427 186.872C176.111 188.225 185.102 193.495 188.142 204.46C190.139 211.658 188.598 217.971 187.503 221.091Z" fill="#773838"/>
<path d="M192.563 203.073L191.769 202.912C192.433 199.638 193.616 196.523 195.286 193.65C197.393 190.02 200.187 186.905 203.596 184.387L204.077 185.038C200.759 187.489 198.039 190.524 195.986 194.057C194.363 196.853 193.211 199.888 192.563 203.074V203.073Z" fill="#773838"/>
<path d="M140.513 173.355L140.021 172.711C140.359 172.451 140.655 172.173 140.923 171.859C143.535 168.801 143.001 163.131 139.594 157.754L140.279 157.321C143.88 163 144.388 169.055 141.541 172.387C141.239 172.74 140.894 173.067 140.516 173.355H140.513Z" fill="#773838"/>
<path d="M161.975 166.742C170.726 164.677 176.146 155.914 174.08 147.168C172.015 138.423 163.247 133.006 154.496 135.071C145.744 137.134 140.325 145.898 142.39 154.643C144.456 163.389 153.224 168.805 161.975 166.742Z" fill="#FFC212"/>
<path d="M158.239 167.33C149.172 167.33 141.793 159.958 141.793 150.898C141.793 141.839 149.172 134.462 158.239 134.462C167.307 134.462 174.684 141.836 174.684 150.898C174.684 159.96 167.307 167.33 158.239 167.33ZM158.239 134.789C149.352 134.789 142.12 142.016 142.12 150.898C142.12 159.78 149.352 167.006 158.239 167.006C167.126 167.006 174.357 159.78 174.357 150.898C174.357 142.016 167.126 134.789 158.239 134.789Z" fill="#3D3B3B"/>
<path d="M158.239 165.552C166.337 165.552 172.902 158.99 172.902 150.898C172.902 142.805 166.337 136.244 158.239 136.244C150.141 136.244 143.576 142.805 143.576 150.898C143.576 158.99 150.141 165.552 158.239 165.552Z" fill="#F7941D"/>
<path d="M158.239 165.714C150.063 165.714 143.414 159.067 143.414 150.898C143.414 142.73 150.065 136.08 158.239 136.08C166.413 136.08 173.064 142.727 173.064 150.898C173.064 159.069 166.413 165.714 158.239 165.714ZM158.239 136.406C150.243 136.406 143.738 142.907 143.738 150.898C143.738 158.889 150.243 165.39 158.239 165.39C166.235 165.39 172.739 158.889 172.739 150.898C172.739 142.907 166.235 136.406 158.239 136.406Z" fill="#3D3B3B"/>
<path d="M157.762 158.835H156.127V156.386C155.127 156.279 154.135 156.328 153.13 156.312C153.182 155.995 153.234 155.694 153.285 155.393C153.329 155.135 153.376 154.878 153.409 154.618C153.422 154.515 153.471 154.487 153.566 154.489C153.904 154.492 154.239 154.494 154.576 154.489C154.957 154.484 155.07 154.374 155.07 153.998C155.07 151.784 155.07 149.567 155.07 147.353C155.07 146.908 154.807 146.63 154.359 146.596C154.169 146.581 153.975 146.585 153.782 146.583C153.592 146.583 153.398 146.583 153.197 146.583V145.036H156.114V142.523H157.755V144.969H158.927V142.521H160.405V145.015C160.795 145.077 161.173 145.121 161.544 145.204C162.206 145.348 162.837 145.574 163.342 146.053C163.78 146.465 163.976 146.99 164.035 147.571C164.079 147.993 164.058 148.414 163.921 148.82C163.754 149.324 163.427 149.698 162.984 149.981C162.917 150.023 162.85 150.062 162.801 150.09C163.123 150.231 163.469 150.349 163.777 150.527C164.47 150.924 164.841 151.544 164.911 152.334C164.975 153.061 164.9 153.769 164.597 154.441C164.265 155.174 163.69 155.638 162.951 155.92C162.204 156.209 161.426 156.332 160.63 156.366C160.578 156.366 160.527 156.371 160.475 156.377C160.46 156.377 160.444 156.386 160.413 156.395V158.832H158.935V156.428H157.762V158.835ZM157.767 151.266V154.569C158.298 154.569 158.819 154.592 159.334 154.564C159.972 154.527 160.604 154.432 161.183 154.126C161.977 153.706 162.173 152.723 161.598 152.033C161.302 151.678 160.89 151.544 160.472 151.433C159.588 151.202 158.688 151.256 157.77 151.266H157.767ZM157.765 149.763C157.876 149.763 157.971 149.763 158.069 149.763C158.811 149.773 159.555 149.765 160.264 149.507C160.663 149.363 161.014 149.134 161.158 148.701C161.395 147.999 161.06 147.291 160.369 147.01C159.914 146.823 159.435 146.763 158.95 146.743C158.558 146.725 158.164 146.74 157.765 146.74V149.765V149.763Z" fill="#3D3B3B"/>
<path d="M156.953 158.743H155.318V156.294C154.318 156.186 153.327 156.234 152.322 156.219C152.373 155.903 152.425 155.601 152.477 155.3C152.52 155.043 152.566 154.786 152.6 154.526C152.612 154.423 152.662 154.394 152.757 154.396C153.094 154.399 153.429 154.402 153.767 154.396C154.148 154.392 154.261 154.28 154.261 153.905C154.261 151.691 154.261 149.474 154.261 147.26C154.261 146.814 153.999 146.536 153.551 146.503C153.359 146.488 153.167 146.493 152.974 146.49C152.783 146.49 152.59 146.49 152.389 146.49V144.943H155.305V142.431H156.946V144.877H158.118V142.428H159.597V144.923C159.985 144.984 160.365 145.028 160.735 145.11C161.397 145.254 162.028 145.482 162.533 145.96C162.971 146.372 163.167 146.897 163.226 147.479C163.27 147.901 163.249 148.321 163.113 148.728C162.945 149.232 162.618 149.605 162.176 149.889C162.109 149.93 162.042 149.968 161.993 149.996C162.314 150.139 162.659 150.257 162.969 150.435C163.661 150.831 164.033 151.452 164.102 152.242C164.167 152.967 164.092 153.675 163.787 154.347C163.455 155.082 162.881 155.544 162.142 155.828C161.395 156.117 160.616 156.24 159.82 156.273C159.769 156.273 159.718 156.279 159.666 156.283C159.651 156.283 159.636 156.294 159.604 156.301V158.74H158.125V156.335H156.953V158.743ZM156.959 151.174V154.477C157.49 154.477 158.009 154.499 158.525 154.471C159.164 154.435 159.795 154.34 160.374 154.034C161.168 153.614 161.363 152.631 160.789 151.941C160.493 151.586 160.081 151.452 159.664 151.341C158.78 151.109 157.878 151.163 156.962 151.174H156.959ZM156.956 149.67C157.067 149.67 157.162 149.67 157.26 149.67C158.002 149.68 158.746 149.672 159.454 149.415C159.854 149.271 160.204 149.042 160.349 148.609C160.585 147.907 160.25 147.198 159.56 146.918C159.105 146.73 158.625 146.671 158.142 146.65C157.749 146.632 157.356 146.648 156.956 146.648V149.672V149.67Z" fill="#FFC212"/>
<path d="M157.118 158.907H155.155V156.443C154.506 156.383 153.847 156.386 153.208 156.386C152.914 156.386 152.618 156.386 152.322 156.383H152.132L152.347 155.086C152.381 154.893 152.412 154.7 152.44 154.505C152.456 154.38 152.525 154.234 152.755 154.234H152.76C153.094 154.237 153.429 154.239 153.764 154.234C154.058 154.229 154.097 154.19 154.097 153.907C154.097 151.693 154.097 149.476 154.097 147.262C154.097 146.907 153.898 146.696 153.538 146.667C153.393 146.657 153.246 146.657 153.1 146.655H152.971C152.84 146.655 152.708 146.655 152.572 146.655H152.224V144.783H155.14V142.27H157.108V144.716H157.953V142.268H159.759V144.788C159.834 144.798 159.908 144.811 159.983 144.822C160.243 144.86 160.511 144.899 160.771 144.956C161.338 145.079 162.061 145.293 162.646 145.844C163.077 146.251 163.319 146.781 163.391 147.466C163.442 147.958 163.404 148.388 163.27 148.784C163.11 149.265 162.801 149.665 162.353 149.973C162.356 149.973 162.36 149.976 162.363 149.979C162.592 150.074 162.832 150.169 163.057 150.298C163.786 150.715 164.195 151.366 164.269 152.234C164.342 153.058 164.234 153.773 163.939 154.422C163.61 155.153 163.04 155.665 162.206 155.987C161.513 156.255 160.735 156.404 159.834 156.443C159.813 156.443 159.795 156.443 159.774 156.446V158.909H157.969V156.505H157.121V158.912L157.118 158.907ZM155.483 158.579H156.791V156.172H158.291V158.577H159.442V156.181L159.558 156.144C159.599 156.132 159.622 156.124 159.653 156.118C159.707 156.114 159.761 156.111 159.816 156.108C160.683 156.069 161.426 155.928 162.085 155.674C162.837 155.382 163.347 154.927 163.641 154.278C163.911 153.683 164.009 153.019 163.942 152.252C163.875 151.497 163.522 150.933 162.891 150.571C162.688 150.455 162.459 150.362 162.237 150.272C162.134 150.231 162.028 150.187 161.927 150.144L161.637 150.014L161.959 149.827C161.997 149.803 162.044 149.778 162.09 149.75C162.525 149.472 162.811 149.119 162.961 148.676C163.079 148.325 163.113 147.94 163.067 147.494C163.005 146.889 162.793 146.426 162.423 146.075C161.894 145.579 161.225 145.383 160.699 145.268C160.45 145.213 160.2 145.174 159.934 145.136C159.813 145.118 159.692 145.1 159.569 145.079L159.432 145.057V142.585H158.28V145.033H156.783V142.587H155.469V145.1H152.554V146.321H152.574C152.711 146.321 152.845 146.321 152.978 146.321H153.105C153.26 146.321 153.411 146.321 153.566 146.333C154.097 146.371 154.429 146.724 154.429 147.252C154.429 149.466 154.429 151.683 154.429 153.897C154.429 154.361 154.246 154.543 153.775 154.551C153.44 154.556 153.102 154.556 152.767 154.551C152.739 154.754 152.706 154.945 152.675 155.133L152.52 156.052C152.752 156.052 152.981 156.052 153.211 156.052C153.906 156.052 154.624 156.047 155.338 156.124L155.485 156.139V158.569L155.483 158.579ZM157.925 154.649C157.762 154.649 157.603 154.649 157.445 154.643C157.283 154.643 157.124 154.639 156.959 154.639H156.797V151.011L157.304 151.003C158.094 150.988 158.908 150.972 159.703 151.18C160.135 151.294 160.583 151.439 160.913 151.832C161.219 152.197 161.343 152.666 161.253 153.116C161.163 153.567 160.872 153.951 160.45 154.175C159.792 154.523 159.081 154.602 158.533 154.63C158.329 154.64 158.125 154.646 157.922 154.646L157.925 154.649ZM157.124 154.316C157.231 154.316 157.343 154.316 157.451 154.319C157.819 154.324 158.167 154.329 158.517 154.309C159.032 154.28 159.7 154.206 160.3 153.889C160.634 153.711 160.866 153.408 160.936 153.058C161.006 152.704 160.908 152.337 160.663 152.046C160.395 151.724 160.017 151.605 159.619 151.5C158.87 151.304 158.112 151.317 157.309 151.333H157.121V154.316H157.124ZM157.597 149.837C157.484 149.837 157.371 149.837 157.258 149.834C157.193 149.834 157.129 149.834 157.059 149.834H156.791V146.485H156.953C157.077 146.485 157.201 146.485 157.322 146.483C157.593 146.48 157.871 146.477 158.146 146.49C158.558 146.508 159.1 146.557 159.619 146.771C160.393 147.088 160.764 147.885 160.5 148.666C160.359 149.085 160.035 149.381 159.506 149.574C158.886 149.799 158.247 149.839 157.593 149.839L157.597 149.837ZM157.152 149.507C157.191 149.507 157.227 149.507 157.262 149.507C158.005 149.518 158.723 149.507 159.398 149.263C159.831 149.106 160.086 148.881 160.194 148.557C160.4 147.945 160.109 147.319 159.499 147.069C159.024 146.877 158.52 146.83 158.133 146.812C157.868 146.799 157.605 146.801 157.327 146.807C157.258 146.807 157.188 146.807 157.118 146.807V149.504H157.149L157.152 149.507Z" fill="#3D3B3B"/>
<path d="M142.983 148.635C142.883 149.387 142.832 150.141 142.817 150.898C142.814 151.078 142.531 151.078 142.535 150.898C142.551 150.115 142.608 149.335 142.713 148.56C142.736 148.383 143.01 148.457 142.983 148.635Z" fill="white"/>
<path d="M144.975 143.028C144.318 144.13 143.826 145.301 143.452 146.527C143.401 146.699 143.128 146.624 143.182 146.451C143.564 145.201 144.063 144.008 144.733 142.884C144.826 142.729 145.068 142.871 144.975 143.025V143.028Z" fill="white"/>
<path d="M158.239 135.485C153.806 135.485 149.532 137.415 146.621 140.759C146.503 140.896 146.304 140.698 146.422 140.561C149.38 137.161 153.736 135.204 158.239 135.204C158.42 135.204 158.42 135.485 158.239 135.485Z" fill="white"/>
<path d="M158.239 136.244C159.424 136.244 160.576 136.385 161.679 136.651C160.75 136.468 159.79 136.37 158.808 136.37C150.709 136.37 144.145 142.929 144.145 151.024C144.145 157.934 148.929 163.726 155.369 165.274C148.645 163.94 143.576 158.011 143.576 150.901C143.576 142.806 150.14 136.246 158.239 136.246V136.244Z" fill="#3D3B3B"/>
<path d="M122.419 251.531L106.536 249.577L97.8127 237.843L95.3271 242.322L94.5565 251.837C53.8009 249.087 19.7815 217.873 12.0302 178.048L7.70758 178.88L3.877 175.616L1.39111 180.095C10.0312 224.669 48.1412 259.522 93.6836 262.629L92.913 272.144C102.622 268.193 112.079 262.72 119.933 256.008L122.419 251.529V251.531Z" fill="#33725D"/>
<path d="M92.4313 272.804L93.2218 263.026C82.1657 262.223 71.3592 259.551 61.0936 255.084C51.011 250.697 41.6985 244.688 33.414 237.233C16.7109 222.195 5.19077 201.934 0.971208 180.178L0.942871 180.026L3.35405 175.682C3.45452 175.502 3.62712 175.379 3.82805 175.342C4.02898 175.306 4.23506 175.361 4.3922 175.495L7.82865 178.424L12.3676 177.552L12.4501 177.968C20.1834 217.7 54.5144 248.509 94.1671 251.384L94.9124 242.196L97.7638 237.057L106.772 249.175L123.102 251.187L120.27 256.286L120.211 256.335C112.663 262.787 103.279 268.391 93.0751 272.541L92.434 272.804H92.4313ZM1.83934 180.167C10.5412 224.672 49.1536 259.164 93.7116 262.205L94.1418 262.233L93.392 271.486C103.238 267.408 112.282 261.97 119.596 255.735L121.739 251.876L106.304 249.976L106.195 249.829L97.867 238.628L95.7463 242.448L94.9504 252.293L94.5311 252.265C84.4996 251.588 74.6952 249.191 65.3905 245.141C56.3743 241.218 48.0433 235.843 40.6346 229.164C25.8147 215.813 15.5517 197.851 11.6953 178.548L7.58907 179.338L4.00064 176.28L1.84191 180.167H1.83934Z" fill="#3D3B3B"/>
<path d="M3.87952 175.618C12.5196 220.192 50.6297 255.045 96.1719 258.152L95.4013 267.667C105.11 263.716 114.567 258.243 122.422 251.531C113.349 248.292 105.226 243.728 97.8154 237.843L97.0448 247.358C56.2892 244.608 22.27 213.393 14.5186 173.568L3.87952 175.616V175.618Z" fill="#67B9A2"/>
<path d="M94.9195 268.324L95.711 258.546C84.6541 257.743 73.8476 255.071 63.582 250.604C53.4994 246.217 44.187 240.208 35.9024 232.753C19.1993 217.718 7.67918 197.455 3.46219 175.7L3.37976 175.281L14.8561 173.072L14.9385 173.489C22.6718 213.218 57.0028 244.029 96.6563 246.904L97.4568 237.013L98.0834 237.511C105.597 243.478 113.607 247.932 122.566 251.132L123.258 251.379L122.7 251.858C115.152 258.307 105.768 263.911 95.5634 268.064L94.9223 268.327L94.9195 268.324ZM4.37926 175.955C13.1791 220.334 51.7271 254.693 96.1999 257.725L96.6301 257.753L95.8803 267.006C105.502 263.019 114.358 257.735 121.581 251.68C113.061 248.56 105.389 244.296 98.1758 238.669L97.4369 247.811L97.0167 247.783C86.9855 247.105 77.181 244.708 67.8763 240.659C58.8602 236.735 50.5292 231.36 43.1205 224.682C28.3005 211.331 18.0375 193.369 14.1811 174.066L4.37926 175.953V175.955Z" fill="#3D3B3B"/>
<path d="M95.7952 257.956L93.3077 262.435L94.053 262.848L96.5404 258.368L95.7952 257.956Z" fill="#3D3B3B"/>
<path opacity="0.5" d="M77.0884 246.957C80.5273 247.899 84.0128 248.641 87.5394 249.176C88.8815 249.38 89.4611 247.325 88.1061 247.119C84.5795 246.584 81.0967 245.842 77.6551 244.9C76.3284 244.537 75.7617 246.594 77.0884 246.957Z" fill="white"/>
<path opacity="0.5" d="M30.5675 216.521C40.292 228.737 53.3759 237.892 67.7605 243.816C69.0279 244.338 69.5817 242.276 68.3272 241.759C54.2826 235.974 41.5595 226.925 32.0745 215.013C31.2193 213.939 29.72 215.458 30.5649 216.521H30.5675Z" fill="white"/>
<path opacity="0.5" d="M14.7685 187.911C16.837 193.945 19.5059 199.749 22.7336 205.251C23.4266 206.434 25.2736 205.361 24.5755 204.174C21.4379 198.83 18.8335 193.206 16.8242 187.345C16.3811 186.055 14.3203 186.609 14.766 187.911H14.7685Z" fill="white"/>
<path d="M95.0237 267.471L92.5363 271.95L93.2815 272.364L95.7698 267.885L95.0237 267.471Z" fill="#3D3B3B"/>
<path d="M225.924 102.183C215.459 60.0859 178.554 27.7584 134.771 24.772L135.542 15.2568C127.844 18.39 120.309 22.4808 113.604 27.3851L111.667 27.5267L108.521 31.3935C117.594 34.6323 125.716 39.1967 133.128 45.0819L136.273 41.2151L133.851 36.1563L133.9 35.5642C174.656 38.3137 208.675 69.529 216.427 109.353L227.065 107.306L230.211 103.44L225.927 102.183H225.924Z" fill="#33725D"/>
<path d="M216.087 109.853L216.005 109.435C208.271 69.704 173.94 38.8955 134.287 36.0199L134.281 36.0765L136.771 41.2743L133.189 45.6766L132.86 45.414C125.346 39.4465 117.336 34.9927 108.377 31.7926L107.808 31.5892L111.451 27.1123L113.446 26.9655C119.91 22.2516 127.491 18.0682 135.377 14.8578L136.018 14.5952L135.228 24.373C145.851 25.1453 156.261 27.6477 166.173 31.8106C175.916 35.904 184.981 41.5137 193.113 48.4828C201.195 55.4081 208.148 63.4944 213.782 72.5179C219.477 81.6444 223.681 91.5072 226.275 101.838L230.94 103.208L227.293 107.693L216.084 109.85L216.087 109.853ZM133.506 35.111L133.926 35.1394C143.958 35.8165 153.762 38.2133 163.067 42.2629C172.083 46.1863 180.413 51.5618 187.822 58.2399C202.642 71.5911 212.905 89.5531 216.762 108.857L226.832 106.918L229.474 103.669L225.571 102.524L225.513 102.286C214.956 59.8233 177.632 28.124 134.743 25.1968L134.313 25.1685L135.062 15.9159C127.432 19.0799 120.111 23.1553 113.857 27.7301L113.759 27.8022L111.883 27.9386L109.232 31.1954C117.924 34.3619 125.727 38.7153 133.061 44.4846L135.771 41.1533L133.417 36.2335L133.506 35.1085V35.111Z" fill="#3D3B3B"/>
<path d="M230.208 103.44C221.569 58.8657 183.459 24.0127 137.917 20.9053L138.687 11.3901C128.978 15.3418 119.52 20.8152 111.667 27.5267C120.739 30.7655 128.862 35.3299 136.273 41.2151L137.043 31.6999C177.799 34.4495 211.818 65.6647 219.57 105.489L230.208 103.443V103.44Z" fill="#67B9A2"/>
<path d="M219.232 105.986L219.15 105.569C211.416 65.837 177.086 35.0285 137.432 32.1528L136.631 42.0464L136.005 41.5496C128.491 35.582 120.482 31.1282 111.522 27.9282L110.829 27.681L111.388 27.2021C118.937 20.7532 128.321 15.1485 138.525 10.996L139.166 10.7334L138.375 20.5111C149.431 21.3144 160.238 23.9866 170.504 28.4534C180.586 32.8402 189.899 38.849 198.183 46.3046C214.886 61.3394 226.406 81.603 230.623 103.357L230.706 103.777L219.229 105.986H219.232ZM136.652 31.244L137.071 31.2724C147.102 31.9494 156.907 34.3463 166.211 38.3959C175.228 42.3193 183.559 47.6949 190.968 54.3729C205.788 67.724 216.051 85.6861 219.905 104.989L229.706 103.102C220.906 58.7238 182.359 24.3651 137.885 21.3324L137.455 21.3041L138.205 12.0514C128.584 16.0393 119.724 21.3221 112.504 27.3772C121.028 30.4975 128.697 34.7634 135.909 40.3885L136.649 31.2467L136.652 31.244Z" fill="#3D3B3B"/>
<path opacity="0.5" d="M159.323 27.1688C155.884 26.2265 152.399 25.4851 148.873 24.9497C147.531 24.7463 146.95 26.8007 148.306 27.0066C151.832 27.5421 155.315 28.2836 158.756 29.2258C160.084 29.5889 160.65 27.5318 159.323 27.1688Z" fill="white"/>
<path opacity="0.5" d="M205.847 57.6037C196.122 45.3879 183.039 36.233 168.654 30.3092C167.387 29.7866 166.833 31.8488 168.088 32.3663C182.132 38.151 194.855 47.2002 204.34 59.1122C205.196 60.1858 206.694 58.6669 205.849 57.6037H205.847Z" fill="white"/>
<path opacity="0.5" d="M221.646 86.2146C219.577 80.1801 216.908 74.3773 213.681 68.8757C212.988 67.6914 211.141 68.765 211.839 69.9518C214.974 75.2964 217.581 80.9189 219.591 86.781C220.033 88.0708 222.094 87.5173 221.649 86.2146H221.646Z" fill="white"/>
<path d="M219.234 105.208L216.09 109.073L216.751 109.611L219.896 105.745L219.234 105.208Z" fill="#3D3B3B"/>
</g>
</g>
<defs>
<clipPath id="clip0_0_632">
<rect width="230" height="284.33" fill="white" transform="translate(0.942871 -2.13379)"/>
</clipPath>
</defs>
</svg>
