<svg width="111" height="166" viewBox="0 0 111 166" fill="none" xmlns="http://www.w3.org/2000/svg">
<g clip-path="url(#clip0_0_736)">
<mask id="mask0_0_736" style="mask-type:luminance" maskUnits="userSpaceOnUse" x="0" y="0" width="111" height="166">
<path d="M110.943 0.0361328H0.942871V165.036H110.943V0.0361328Z" fill="white"/>
</mask>
<g mask="url(#mask0_0_736)">
<path d="M93.376 68.6664C92.7967 67.5146 91.7097 67.0417 91.2805 66.8547C84.6136 63.9465 67.3382 82.8331 63.6566 86.9226C61.2139 86.4185 58.5844 85.9578 55.7875 85.582C52.0501 85.0779 27.2668 92.2765 25.44 94.5334C24.6129 95.6419 23.8784 96.8162 23.2956 98.0703C22.9955 98.8514 22.7617 99.6551 22.6134 100.48C22.4581 102.061 22.5157 103.682 22.6029 105.26C22.6989 106.989 22.8873 108.71 23.1124 110.425C23.3619 112.228 23.6358 114.03 23.8906 115.833C28.6068 115.337 33.323 114.842 38.041 114.347C47.9987 110.323 57.958 106.298 67.9157 102.274C69.6919 101.557 71.2954 100.381 73.2792 98.9311C79.1401 94.6459 82.2197 90.1477 87.6879 81.9983C89.3158 79.5716 90.5424 77.6074 91.448 75.9983C93.8785 71.682 94.0024 69.9239 93.3708 68.6682L93.376 68.6664Z" fill="#F9B0C3"/>
<path d="M23.6359 116.162L23.5958 115.874C23.4841 115.078 23.3672 114.283 23.2503 113.486C23.1038 112.479 22.9572 111.473 22.8176 110.465C22.5524 108.44 22.3901 106.791 22.3046 105.274C22.2035 103.469 22.1668 101.959 22.3151 100.448L22.3186 100.424C22.4652 99.6138 22.699 98.7841 23.0148 97.9613L23.0235 97.9423C23.5819 96.742 24.292 95.5676 25.1993 94.3534C26.2479 93.0561 33.4348 90.6017 39.8138 88.7328C46.3412 86.8206 53.8264 85.0123 55.8312 85.2825C58.3926 85.6272 60.9889 86.0671 63.5503 86.5919C69.9066 79.5441 85.0673 63.8133 91.4045 66.5777C91.8459 66.77 93.0202 67.2809 93.6483 68.5315C94.3166 69.8583 94.2433 71.6614 91.7186 76.144C90.7851 77.7999 89.5515 79.7693 87.9463 82.163C82.6717 90.0232 79.4892 94.7674 73.4643 99.1721L73.4381 99.1911C71.4264 100.661 69.8386 101.822 68.0362 102.551L38.1214 114.639L23.6377 116.16L23.6359 116.162ZM22.9171 100.519C22.774 101.988 22.8106 103.469 22.9084 105.241C22.9921 106.743 23.1526 108.376 23.4161 110.385C23.5557 111.388 23.7022 112.395 23.8488 113.399C23.9518 114.101 24.053 114.8 24.1524 115.502L37.9678 114.052L67.8041 101.995C69.5367 101.295 71.0984 100.152 73.0752 98.7079L73.1014 98.6888C79.039 94.3482 82.2006 89.637 87.4368 81.8305C89.0333 79.4488 90.2599 77.4933 91.1864 75.8513C93.7216 71.3479 93.6064 69.8029 93.1039 68.8017C92.5735 67.7469 91.5825 67.3156 91.1585 67.1303C84.9748 64.4334 68.7184 81.7508 63.8836 87.1237L63.7666 87.2536L63.5957 87.219C60.9924 86.682 58.3525 86.2317 55.7475 85.8818C54.1143 85.6618 47.6306 87.0717 39.9831 89.313C32.3216 91.5578 26.4381 93.7818 25.6774 94.7241C24.805 95.8932 24.1158 97.0295 23.5766 98.1882C23.2783 98.9694 23.0549 99.754 22.9153 100.521L22.9171 100.519Z" fill="#773838"/>
<path d="M102.399 76.0173C101.467 77.6108 100.207 79.5559 98.5408 81.9566C92.9417 90.0177 89.7905 94.4674 83.8599 98.6591C81.8516 100.078 80.2307 101.228 78.4423 101.917C68.4201 105.782 58.3979 109.648 48.3757 113.512C41.1609 114.153 33.946 114.795 26.7312 115.436C25.8065 113.623 24.4246 110.28 24.5328 106.014C24.7247 98.4374 29.4793 93.442 30.7653 92.091C38.6815 83.7718 50.6823 83.8498 54.5331 83.874C59.0818 83.9035 65.2969 84.8388 66.5828 85.0328C69.3727 85.4537 71.9934 85.956 74.4292 86.4998C78.1753 82.4693 95.7526 63.8615 102.372 66.8736C102.798 67.0676 103.878 67.5595 104.438 68.7183C105.049 69.9844 104.897 71.7408 102.397 76.0173H102.399Z" fill="#F9B0C3"/>
<path d="M26.5568 115.753L26.4643 115.571C24.9219 112.549 24.1507 109.24 24.2327 106.005C24.3618 100.9 26.487 96.1492 30.5471 91.8831C38.5541 83.4703 50.5846 83.5465 54.5366 83.5725C57.494 83.5916 61.7898 84.0038 66.6299 84.7348C69.1843 85.1193 71.7718 85.6025 74.3262 86.1672C80.7943 79.2215 96.2062 63.7332 102.5 66.5998C102.938 66.799 104.105 67.329 104.712 68.5883C105.358 69.9254 105.257 71.7268 102.66 76.1679C101.701 77.8099 100.434 79.7585 98.7903 82.1262C93.3901 89.9016 90.1308 94.5955 84.0361 98.9015L84.01 98.9205C81.9755 100.358 80.3685 101.494 78.5539 102.194L48.4472 113.804L48.4053 113.808L26.5568 115.751V115.753ZM53.734 84.1701C49.2149 84.1701 38.336 84.5737 30.9868 92.2953C27.0313 96.4506 24.9637 101.068 24.8364 106.019C24.7579 109.09 25.475 112.232 26.911 115.116L48.3059 113.214L78.3323 101.635C80.0754 100.963 81.6562 99.8454 83.6558 98.4321L83.6819 98.413C89.6893 94.1677 92.9259 89.5066 98.2878 81.785C99.9226 79.4294 101.181 77.4946 102.133 75.8665C104.742 71.4046 104.651 69.8562 104.164 68.8481C103.651 67.7846 102.667 67.3377 102.245 67.1454C96.1033 64.3499 79.5712 81.4074 74.6508 86.7007L74.5321 86.8288L74.3611 86.7907C71.7666 86.2122 69.1337 85.7203 66.5357 85.3289C61.7235 84.6031 57.4591 84.1926 54.5296 84.1736C54.2923 84.1736 54.0236 84.1701 53.7305 84.1701H53.734Z" fill="#773838"/>
<path d="M107.012 79.8403C106.916 79.991 106.82 80.1451 106.721 80.301C106.324 80.9228 105.892 81.5844 105.421 82.2893C104.979 82.9475 104.505 83.6439 103.995 84.3801C97.9999 93.0318 94.6237 97.8072 88.269 102.307C86.1177 103.831 84.3781 105.064 82.4641 105.806C75.7709 108.395 69.0796 110.983 62.3882 113.572C61.3867 113.96 60.3834 114.348 59.3819 114.735C56.4035 115.886 54.5924 118.899 54.985 122.047C55.6253 127.183 56.3529 133.027 57.0631 138.715C58.759 152.321 60.3433 165.036 60.3433 165.036L9.68616 164.743C12.9245 150.942 16.1612 137.141 19.3995 123.34C20.1969 119.94 20.3731 116.43 19.9596 112.964C19.9596 112.949 19.9561 112.932 19.9544 112.916C19.3821 108.054 20.1812 104.32 20.4586 103.144C21.0449 100.665 21.865 97.1974 24.7142 93.9376C26.2776 92.1501 27.8531 91.1195 28.6924 90.567C32.0861 88.336 35.2651 87.645 36.825 87.3938C42.5567 86.6317 49.2725 86.1797 56.8014 86.4828C58.0332 86.5331 59.2441 86.6005 60.434 86.6854C62.4982 86.8326 64.4977 87.0283 66.431 87.2639C73.8342 88.1663 81.2584 85.7552 86.6621 80.6491C89.9074 77.5834 93.6204 74.3425 97.1467 71.8882C100.805 69.3438 104.26 67.6464 106.78 67.8681C107.028 67.8906 107.265 67.9305 107.493 67.9894C107.699 68.0431 107.897 68.1122 108.087 68.1988C108.254 68.2751 108.518 68.3946 108.813 68.5764C109.32 68.8899 109.924 69.3889 110.306 70.177C111.044 71.7012 110.749 73.8923 107.01 79.8403H107.012Z" fill="#F9B0C3"/>
<path d="M55.6165 118.805L55.1053 118.483C56.2115 116.752 57.6004 115.405 59.23 114.473C60.2595 113.886 61.1877 113.617 61.8001 113.439C61.9973 113.382 62.1665 113.333 62.2765 113.29C68.9696 110.702 75.6609 108.113 82.3523 105.523C84.2245 104.799 85.9188 103.599 88.0648 102.08L88.0928 102.061C94.5329 97.5003 97.9999 92.4963 103.746 84.2083C110.128 74.9988 110.885 72.0612 110.036 70.3066C109.481 69.1599 108.418 68.6784 107.965 68.4723C105.805 67.4919 102.226 68.7252 97.3228 72.1339C94.2816 74.2488 90.7658 77.1864 86.8731 80.8654C84.8194 82.8053 76.6537 88.2007 66.4134 87.5633C64.6599 87.4542 62.9063 87.1597 61.2016 86.6904L61.3639 86.1101C63.0285 86.5691 64.7402 86.8549 66.4519 86.9623C76.4776 87.5876 84.4513 82.3238 86.4543 80.4289C90.3697 76.7291 93.9082 73.7725 96.9738 71.6403C102.065 68.0982 105.846 66.8476 108.216 67.9232C108.685 68.1363 109.931 68.7009 110.58 70.0433C111.571 72.0906 110.856 75.0074 104.243 84.546C98.4604 92.8895 94.9709 97.9246 88.4435 102.547L88.4156 102.567C86.2362 104.11 84.5142 105.329 82.5722 106.081C75.8791 108.67 69.1877 111.258 62.4963 113.848C62.3602 113.9 62.1875 113.95 61.9694 114.014C61.3831 114.184 60.4985 114.44 59.5319 114.991C57.9877 115.872 56.6704 117.154 55.6165 118.801V118.805Z" fill="#773838"/>
<path d="M91.8913 85.4086C89.6998 83.6315 86.6237 82.9144 83.8652 83.5362L83.7308 82.949C86.6691 82.2856 89.9423 83.0495 92.2752 84.9427L91.8913 85.4086Z" fill="#773838"/>
<path d="M90.8828 82.5928C89.4451 82.113 87.8835 81.8982 86.3672 81.9709L86.3376 81.3699C87.9515 81.292 89.5445 81.5102 91.0765 82.0229L90.8828 82.5928Z" fill="#773838"/>
<path d="M107.094 80.2784L106.829 80.0792C105.796 79.3032 105.093 78.3921 104.742 77.3685C103.786 74.585 105.347 70.958 108.626 68.3409L108.793 68.2075L108.975 68.3201C109.704 68.7687 110.245 69.3507 110.582 70.0452C111.372 71.6786 111.095 73.913 107.27 79.9978L107.094 80.2766V80.2784ZM108.835 68.9506C105.871 71.3963 104.458 74.6803 105.316 77.1762C105.597 77.9955 106.141 78.7403 106.935 79.395C110.43 73.7796 110.706 71.6942 110.036 70.3085C109.777 69.775 109.374 69.3195 108.835 68.9506Z" fill="#773838"/>
<mask id="mask1_0_736" style="mask-type:luminance" maskUnits="userSpaceOnUse" x="23" y="14" width="66" height="67">
<path d="M79.319 70.7601C92.2 57.973 92.2 37.2411 79.319 24.454C66.4379 11.667 45.5537 11.667 32.6726 24.454C19.7916 37.2411 19.7916 57.973 32.6726 70.7601C45.5537 83.5471 66.4379 83.5471 79.319 70.7601Z" fill="white"/>
</mask>
<g mask="url(#mask1_0_736)">
<path d="M79.319 70.7601C92.2 57.973 92.2 37.2411 79.319 24.454C66.4379 11.667 45.5537 11.667 32.6726 24.454C19.7916 37.2411 19.7916 57.973 32.6726 70.7601C45.5537 83.5471 66.4379 83.5471 79.319 70.7601Z" fill="#FFC212"/>
<path d="M79.319 70.7601C92.2 57.973 92.2 37.2411 79.319 24.454C66.4379 11.667 45.5537 11.667 32.6726 24.454C19.7916 37.2411 19.7916 57.973 32.6726 70.7601C45.5537 83.5471 66.4379 83.5471 79.319 70.7601Z" fill="#3D3B3B"/>
<path d="M77.3461 35.9214L15.4915 36.2322L15.527 43.1968L77.3816 42.886L77.3461 35.9214Z" fill="#FFC212"/>
<path d="M76.6117 31.1587L14.7571 31.4694L14.7719 34.3655L76.6265 34.0547L76.6117 31.1587Z" fill="#FFC212"/>
<path d="M76.3606 28.1045L14.506 28.4153L14.5114 29.4857L76.366 29.1749L76.3606 28.1045Z" fill="#FFC212"/>
<path d="M76.7371 44.812L14.8825 45.1228L14.888 46.1932L76.7426 45.8824L76.7371 44.812Z" fill="#FFC212"/>
<path d="M78.107 55.4707L16.2525 55.7815L16.288 62.7461L78.1426 62.4353L78.107 55.4707Z" fill="#FFC212"/>
</g>
<path d="M61.1669 80.3235C79.3834 80.3235 94.1508 65.6638 94.1508 47.5802C94.1508 29.4966 79.3834 14.8369 61.1669 14.8369C42.9503 14.8369 28.1829 29.4966 28.1829 47.5802C28.1829 65.6638 42.9503 80.3235 61.1669 80.3235Z" fill="#FFC212"/>
<path d="M61.1634 80.6147C52.3381 80.6147 44.0346 77.225 37.7567 71.057C31.4405 64.8493 27.9352 56.5716 27.8898 47.7467C27.7973 29.5321 42.6492 14.6379 60.9976 14.5444C61.0552 14.5444 61.1145 14.5444 61.1721 14.5444C69.9974 14.5444 78.3027 17.934 84.5788 24.102C90.8968 30.3098 94.4003 38.5874 94.444 47.4124C94.4893 56.2356 91.0695 64.5496 84.8161 70.8197C78.5627 77.0899 70.2242 80.5696 61.3361 80.6129C61.2785 80.6129 61.2192 80.6129 61.1616 80.6129L61.1634 80.6147ZM61.1721 15.1281C61.1145 15.1281 61.0587 15.1281 61.0011 15.1281C42.9755 15.2181 28.3836 29.8508 28.4761 47.7449C28.5197 56.414 31.9622 64.5461 38.1685 70.6448C44.3347 76.7036 52.4934 80.0344 61.1634 80.0344C61.221 80.0344 61.2768 80.0344 61.3344 80.0344C70.0672 79.9911 78.2591 76.5737 84.4026 70.4127C90.546 64.2517 93.9048 56.0849 93.8595 47.4176C93.8158 38.7485 90.3733 30.6164 84.167 24.5177C78.0008 18.4589 69.8403 15.1281 61.1721 15.1281Z" fill="#3D3B3B"/>
<path d="M61.1669 77.0707C77.5737 77.0707 90.8741 63.8674 90.8741 47.5803C90.8741 31.2931 77.5737 18.0898 61.1669 18.0898C44.76 18.0898 31.4597 31.2931 31.4597 47.5803C31.4597 63.8674 44.76 77.0707 61.1669 77.0707Z" fill="#F7941D"/>
<path d="M61.1633 77.3616C53.2087 77.3616 45.7217 74.3062 40.0632 68.7463C34.3682 63.1499 31.2101 55.6881 31.1699 47.7326C31.1298 39.7789 34.2111 32.2842 39.8486 26.6306C45.4861 20.9771 53.0028 17.8421 61.0167 17.8022C61.069 17.8022 61.1196 17.8022 61.172 17.8022C77.643 17.8022 91.0851 31.0613 91.1688 47.4312C91.2526 63.8514 77.8629 77.2785 61.322 77.3616C61.2697 77.3616 61.2174 77.3616 61.165 77.3616H61.1633ZM61.1702 18.3807C61.1196 18.3807 61.069 18.3807 61.0184 18.3807C53.1616 18.4206 45.7915 21.495 40.2639 27.0377C34.7363 32.5804 31.7143 39.9278 31.7544 47.7274C31.7946 55.527 34.8916 62.8433 40.475 68.3307C46.0218 73.7814 53.364 76.7779 61.1633 76.7779C61.2139 76.7779 61.2662 76.7779 61.3168 76.7779C77.5348 76.6965 90.6611 63.5292 90.5808 47.4312C90.4988 31.3817 77.3185 18.3807 61.1702 18.3807Z" fill="#3D3B3B"/>
<path d="M58.7084 63.3819C57.5725 63.3871 56.4995 63.3923 55.3933 63.3992C55.3845 61.7589 55.3758 60.1325 55.3688 58.4732C53.3414 58.267 51.3348 58.3762 49.3004 58.3536C49.4033 57.718 49.5045 57.11 49.6022 56.502C49.686 55.9824 49.7767 55.4628 49.8448 54.9414C49.8727 54.7319 49.9686 54.6782 50.1623 54.6799C50.8428 54.6834 51.525 54.6816 52.2055 54.6678C52.9802 54.6522 53.2053 54.427 53.2018 53.6753C53.1809 49.2186 53.1599 44.7603 53.132 40.3036C53.1268 39.4098 52.5911 38.8504 51.6838 38.7898C51.2947 38.7638 50.9039 38.7707 50.5148 38.769C50.1274 38.7672 49.7401 38.7724 49.3283 38.7742C49.3231 37.7332 49.3178 36.7078 49.3126 35.6616C51.2807 35.6512 53.2332 35.6426 55.2188 35.6322C55.2101 33.9417 55.2013 32.2702 55.1926 30.5728C56.3145 30.5676 57.4016 30.5624 58.5182 30.5554C58.527 32.2026 58.5357 33.8395 58.5427 35.4798C59.3418 35.4763 60.1095 35.4711 60.9156 35.4676C60.9069 33.8118 60.8982 32.1853 60.8912 30.5381C61.9032 30.5329 62.8803 30.5277 63.8853 30.5225C63.894 32.194 63.9027 33.8706 63.9115 35.5438C64.7001 35.6668 65.4696 35.75 66.2216 35.911C67.5633 36.1968 68.844 36.6437 69.8752 37.5998C70.7651 38.4243 71.1681 39.4774 71.2972 40.6518C71.3897 41.5022 71.3531 42.3457 71.0809 43.1667C70.7441 44.1817 70.0863 44.9387 69.1947 45.512C69.0604 45.5986 68.9226 45.6748 68.8248 45.732C69.4809 46.0143 70.1788 46.2481 70.8087 46.6015C72.2185 47.3913 72.974 48.6367 73.1223 50.2267C73.2584 51.6851 73.1153 53.1124 72.5047 54.4686C71.8399 55.9478 70.6796 56.8848 69.1878 57.4651C67.6768 58.054 66.1012 58.3069 64.489 58.3848C64.3843 58.39 64.2814 58.3969 64.1784 58.4073C64.1453 58.4108 64.1138 58.4264 64.0545 58.4437C64.0632 60.0701 64.072 61.7 64.079 63.3524C63.0739 63.3576 62.0968 63.3628 61.0849 63.368C61.0761 61.7693 61.0691 60.1671 61.0604 58.5286C60.2596 58.5321 59.4918 58.5372 58.684 58.5407C58.6927 60.1325 58.6997 61.7433 58.7084 63.3853V63.3819ZM58.6421 48.1499C58.6543 50.3895 58.6648 52.5979 58.6753 54.7977C59.7501 54.7925 60.8022 54.8323 61.8491 54.77C63.142 54.692 64.4192 54.4911 65.59 53.8693C67.1934 53.0171 67.5773 51.0339 66.4065 49.6517C65.8028 48.9398 64.9688 48.6748 64.1191 48.4583C62.3272 47.9993 60.4986 48.117 58.6421 48.1499ZM58.6212 45.124C58.8463 45.124 59.0417 45.1188 59.2371 45.1205C60.7411 45.1361 62.2486 45.1119 63.6794 44.587C64.4837 44.2926 65.1921 43.8284 65.4835 42.9554C65.9564 41.5386 65.2689 40.12 63.8713 39.5588C62.9466 39.1881 61.9747 39.0721 60.9924 39.0323C60.1985 39.0011 59.4029 39.0323 58.5898 39.0375C58.6002 41.0865 58.6107 43.0784 58.6212 45.124Z" fill="#3D3B3B"/>
<path d="M60.3049 63.3733C59.169 63.3785 58.096 63.3837 56.9898 63.3906C56.981 61.7503 56.9723 60.1239 56.9653 58.4645C54.9379 58.2584 52.9313 58.3675 50.8969 58.345C50.9998 57.7094 51.101 57.1014 51.1987 56.4934C51.2825 55.9738 51.3732 55.4542 51.4413 54.9328C51.4692 54.7232 51.5651 54.6695 51.7588 54.6713C52.4393 54.6747 53.1215 54.673 53.802 54.6591C54.5767 54.6436 54.8018 54.4184 54.7983 53.6667C54.7773 49.21 54.7564 44.7516 54.7285 40.295C54.7233 39.4012 54.1876 38.8418 53.2803 38.7811C52.8912 38.7552 52.5004 38.7621 52.1113 38.7604C51.7239 38.7586 51.3366 38.7638 50.9248 38.7656C50.9196 37.7246 50.9143 36.6992 50.9091 35.653C52.8772 35.6426 54.8297 35.6339 56.8153 35.6236C56.8066 33.933 56.7978 32.2616 56.7891 30.5641C57.911 30.5589 58.9981 30.5537 60.1147 30.5468C60.1235 32.194 60.1322 33.8308 60.1392 35.4694C60.9383 35.4659 61.706 35.4607 62.5121 35.4573C62.5034 33.8014 62.4947 32.175 62.4877 30.5278C63.4997 30.5226 64.4768 30.5174 65.4818 30.5122C65.4905 32.1836 65.4992 33.8603 65.5079 35.5335C66.2966 35.6565 67.066 35.7396 67.8181 35.9007C69.1597 36.1865 70.4405 36.6334 71.4717 37.5895C72.3616 38.4139 72.7645 39.467 72.8937 40.6414C72.9862 41.4919 72.9495 42.3354 72.6773 43.1564C72.3405 44.1714 71.6827 44.9283 70.7911 45.5016C70.6568 45.5882 70.5191 45.6644 70.4213 45.7216C71.0774 46.0039 71.7753 46.2378 72.4052 46.5911C73.815 47.3809 74.5705 48.6263 74.7188 50.2164C74.8549 51.6748 74.7118 53.102 74.1012 54.4582C73.4364 55.9374 72.2761 56.8745 70.7843 57.4547C69.2733 58.0436 67.6977 58.2965 66.0855 58.3745C65.9808 58.3797 65.8778 58.3866 65.7749 58.397C65.7418 58.4004 65.7103 58.416 65.651 58.4334C65.6597 60.0598 65.6685 61.6897 65.6754 63.3421C64.6704 63.3473 63.6933 63.3525 62.6813 63.3577C62.6726 61.759 62.6656 60.1568 62.6569 58.5182C61.8561 58.5217 61.0883 58.5269 60.2805 58.5304C60.2892 60.1221 60.2962 61.733 60.3049 63.375V63.3733ZM60.2386 48.1431C60.2508 50.3826 60.2613 52.591 60.2718 54.7908C61.3466 54.7856 62.3987 54.8254 63.4456 54.7631C64.7385 54.6851 66.0157 54.4842 67.1865 53.8624C68.7899 53.0102 69.1737 51.027 68.0029 49.6448C67.3992 48.9329 66.5652 48.6679 65.7155 48.4514C63.9236 47.9924 62.0951 48.1101 60.2386 48.1431ZM60.2177 45.1171C60.4428 45.1171 60.6382 45.1119 60.8336 45.1136C62.3376 45.1292 63.8451 45.105 65.2759 44.5802C66.0802 44.2857 66.7886 43.8215 67.08 42.9485C67.5529 41.5317 66.8654 40.1131 65.4678 39.5519C64.5431 39.1813 63.5712 39.0652 62.5889 39.0254C61.795 38.9942 60.9994 39.0254 60.1863 39.0306C60.1967 41.0796 60.2072 43.0715 60.2177 45.1171Z" fill="#FFC212"/>
<path d="M56.7001 63.6815L56.674 58.7278C55.3444 58.61 53.9974 58.6204 52.6923 58.6308C52.1043 58.636 51.4971 58.6394 50.8951 58.6343L50.5549 58.6308L50.6927 57.789C50.766 57.3335 50.8393 56.89 50.9108 56.4466L50.9737 56.0656C51.0365 55.6811 51.1028 55.2844 51.1534 54.893C51.197 54.5517 51.4011 54.3785 51.7571 54.3785H51.7623C52.3189 54.382 53.0517 54.382 53.7985 54.3664C54.4109 54.3543 54.5104 54.2555 54.5086 53.6666C54.4877 49.21 54.4668 44.7516 54.4389 40.295C54.4336 39.5554 54.0166 39.1206 53.2628 39.0686C52.9697 39.0479 52.6661 39.0479 52.373 39.0479H52.113C51.8478 39.0461 51.5826 39.0479 51.3104 39.0496L50.6369 39.0531L50.6177 35.3602L56.5239 35.3308L56.4977 30.2714L60.4079 30.2523L60.4323 35.1766L62.219 35.168L62.1945 30.2385L65.7749 30.2212L65.8011 35.2858C65.9633 35.31 66.1256 35.3325 66.2861 35.3551C66.8113 35.4295 67.354 35.5057 67.8809 35.6183C69.0238 35.8608 70.4894 36.2817 71.6724 37.3781C72.5413 38.1835 73.0351 39.2401 73.1851 40.6102C73.2933 41.5923 73.2183 42.4549 72.9548 43.2482C72.6303 44.2285 71.9934 45.0443 71.0634 45.6713C71.0931 45.6835 71.1228 45.6956 71.1524 45.7077C71.6183 45.893 72.0999 46.0853 72.55 46.3382C74.0209 47.1627 74.8497 48.4583 75.0102 50.1903C75.1637 51.841 74.9544 53.2752 74.3681 54.5777C73.7103 56.0413 72.5727 57.0719 70.8907 57.7266C69.4931 58.2705 67.9245 58.5788 66.0994 58.6654C66.0471 58.6672 65.9948 58.6706 65.9442 58.6741L65.9686 63.6313L62.3882 63.6486L62.3638 58.8092L60.5736 58.8179L60.598 63.6625L56.6984 63.6815H56.7001ZM53.8177 58.0453C54.8663 58.0453 55.9342 58.0679 56.9968 58.1753L57.2585 58.2012L57.2829 63.0978L60.0118 63.084L59.9874 58.2393L62.9483 58.2238L62.9727 63.0632L65.3823 63.0511L65.3579 58.2186L65.5655 58.1545C65.583 58.1493 65.5969 58.1441 65.6091 58.1406C65.6458 58.1285 65.6912 58.1112 65.7487 58.106C65.8569 58.0956 65.9668 58.0886 66.075 58.0835C67.8373 57.9986 69.343 57.7041 70.6813 57.1845C72.2133 56.5887 73.2462 55.6568 73.8377 54.3404C74.3803 53.1332 74.5757 51.7925 74.4309 50.244C74.2878 48.7129 73.5603 47.5697 72.2656 46.844C71.8486 46.6101 71.3845 46.4248 70.9378 46.2464C70.7267 46.1615 70.5156 46.0784 70.3097 45.9883L69.7862 45.7631L70.3725 45.4167C70.4528 45.3717 70.5452 45.3163 70.636 45.2591C71.5258 44.6875 72.1033 43.9704 72.4017 43.068C72.6373 42.3561 72.7053 41.5732 72.6058 40.6743C72.4715 39.448 72.0353 38.5092 71.2746 37.8042C70.1963 36.8031 68.8283 36.4151 67.7588 36.1865C67.2528 36.0791 66.7433 36.0063 66.2041 35.9301C65.9599 35.8955 65.7138 35.8608 65.4643 35.8227L65.2183 35.7846L65.1921 30.8049L62.7826 30.817L62.807 35.7465L59.8495 35.7621L59.8251 30.8378L57.0857 30.8516L57.1119 35.9111L51.2057 35.9405L51.2179 38.4711H51.3052C51.5809 38.4676 51.8496 38.4659 52.1165 38.4676H52.373C52.6766 38.4676 52.9907 38.4676 53.303 38.4901C54.3586 38.5629 55.0181 39.254 55.0234 40.2932C55.0495 44.7499 55.0722 49.2083 55.0932 53.6649C55.0966 54.5812 54.7494 54.9293 53.8107 54.9484C53.0587 54.964 52.3189 54.9622 51.7606 54.9605C51.7501 54.9605 51.7431 54.9605 51.7344 54.9605C51.7344 54.9605 51.7344 54.9657 51.7344 54.9692C51.6821 55.3693 51.6157 55.7711 51.5529 56.1608L51.4919 56.5384C51.4203 56.9836 51.347 57.427 51.2738 57.8825L51.2458 58.0575C51.7309 58.0592 52.2177 58.0575 52.6923 58.0523C53.0657 58.0488 53.4426 58.0471 53.8212 58.0471L53.8177 58.0453ZM62.0218 55.0887C61.7653 55.0887 61.5106 55.0869 61.2593 55.0852C60.933 55.0818 60.6033 55.08 60.2735 55.0817H59.9804L59.9437 47.8572L60.2334 47.852C60.4689 47.8486 60.7027 47.8416 60.9383 47.8364C62.5348 47.7983 64.1854 47.7585 65.7889 48.169C66.6595 48.3924 67.5651 48.6748 68.2281 49.4577C68.844 50.1834 69.097 51.1135 68.9243 52.0073C68.7516 52.9011 68.1688 53.6701 67.326 54.1187C66.007 54.8202 64.5692 54.9865 63.4648 55.0523C62.9867 55.0818 62.5034 55.0887 62.0236 55.0887H62.0218ZM60.5632 54.4998C60.797 54.4998 61.0308 54.5015 61.2628 54.5032C62.0096 54.5102 62.7145 54.5154 63.4281 54.4721C64.4733 54.4097 65.829 54.2538 67.0486 53.606C67.7343 53.2423 68.2089 52.6187 68.3485 51.8982C68.4881 51.1759 68.2805 50.4242 67.7797 49.8318C67.2266 49.1805 66.4536 48.9398 65.6423 48.7319C64.1173 48.3422 62.5802 48.3786 60.9505 48.4184C60.8109 48.4219 60.6713 48.4254 60.5317 48.4288L60.5632 54.5015V54.4998ZM59.928 45.4081L59.8931 38.7413H60.1863C60.4358 38.7378 60.6835 38.7343 60.9313 38.7309C61.4792 38.7222 62.0462 38.7136 62.6028 38.7361C63.4369 38.769 64.5291 38.8625 65.5795 39.2834C67.1289 39.9052 67.8774 41.4849 67.3592 43.0403C67.0818 43.8734 66.4327 44.4675 65.3788 44.8538C63.9149 45.3907 62.3917 45.4202 60.8318 45.4046C60.701 45.4046 60.5701 45.4046 60.4305 45.4046L59.9298 45.4081H59.928ZM60.7097 44.8226C60.7516 44.8226 60.7935 44.8226 60.8371 44.8226C62.3394 44.8382 63.805 44.8105 65.1764 44.3082C66.0663 43.9826 66.5828 43.5218 66.8043 42.8567C67.2231 41.6009 66.6159 40.3244 65.3596 39.8204C64.393 39.4324 63.3671 39.3475 62.5802 39.3146C62.0393 39.2921 61.5071 39.3007 60.9418 39.3111C60.79 39.3129 60.6364 39.3163 60.4829 39.3181L60.5108 44.8226C60.5789 44.8226 60.6452 44.8226 60.7115 44.8226H60.7097Z" fill="#3D3B3B"/>
<g opacity="0.8">
<path d="M91.9924 42.8845C92.2052 44.3897 92.3169 45.9018 92.3535 47.4226C92.364 47.8608 93.0532 47.8625 93.041 47.4226C93.0026 45.8412 92.877 44.2702 92.6554 42.7044C92.5943 42.2713 91.9313 42.4549 91.9924 42.8862V42.8845Z" fill="white"/>
<path d="M87.9061 31.6378C89.2531 33.8375 90.2598 36.1932 91.0205 38.651C91.1496 39.0702 91.8144 38.8918 91.6835 38.4691C90.9071 35.9559 89.8778 33.5414 88.4994 31.2931C88.269 30.9172 87.674 31.2602 87.9043 31.6378H87.9061Z" fill="white"/>
<path d="M61.0081 16.6227C69.9119 16.5187 78.7249 20.4194 84.5596 27.1035C84.8492 27.4361 85.3343 26.9511 85.0464 26.6202C79.1 19.8062 70.0794 15.8346 61.0081 15.9385C60.5649 15.9437 60.5649 16.6261 61.0081 16.6209V16.6227Z" fill="white"/>
</g>
<path d="M61.0168 18.0912C58.6159 18.1033 56.2849 18.3978 54.0515 18.9434C55.9289 18.5641 57.8709 18.3597 59.86 18.3493C76.2665 18.2662 89.6335 31.4023 89.7172 47.6891C89.7888 61.5925 80.1538 73.2979 67.127 76.4763C80.7366 73.7257 90.9473 61.7432 90.874 47.431C90.7903 31.1442 77.4233 18.0081 61.0168 18.0912Z" fill="#3D3B3B"/>
<path d="M66.7468 75.3785C64.7298 80.6648 63.3392 83.1521 62.643 84.2035C49.2603 104.432 41.2027 125.799 30.699 124.679C24.634 124.033 19.6927 116.093 18.8534 109.559C17.8676 101.888 22.5036 95.9384 23.5068 94.6497C27.314 89.7652 32.9271 87.0129 36.1986 85.4108C39.163 83.9575 42.0176 82.972 45.7288 80.0309C46.65 79.3017 46.0708 79.4645 49.9425 76.1043C50.8672 75.3023 51.7903 74.5402 52.7569 73.7746C55.0356 71.9715 57.5534 70.1494 60.8877 67.74C61.4932 67.3036 62.9728 66.3301 64.564 66.628C65.5865 66.8186 66.4257 67.5218 66.9789 68.4259C67.347 69.0252 67.5895 69.7111 67.6768 70.3953C67.8949 72.1066 67.3488 73.7902 66.7451 75.3768L66.7468 75.3785Z" fill="#F9B0C3"/>
<path d="M37.0501 120.591C34.63 120.591 32.2309 120.317 29.8806 119.77C27.7258 119.269 25.6146 118.535 23.6046 117.589L23.8645 117.045C25.8362 117.972 27.9073 118.692 30.0185 119.184C33.4593 119.985 37.0065 120.191 40.5659 119.794L40.6339 120.392C39.437 120.525 38.2418 120.591 37.0501 120.591Z" fill="#773838"/>
<path d="M52.6382 98.0719L52.1689 97.6908C55.5364 93.6118 58.7852 89.3976 61.8264 85.1627C64.065 82.0449 65.7453 78.7089 66.8218 75.2448C67.7937 72.1166 67.8286 70.3655 66.9492 69.0023C66.3193 68.0255 65.234 67.298 63.812 66.8979L63.9778 66.3193C65.5446 66.761 66.7485 67.5768 67.4587 68.6784C68.4358 70.1923 68.4183 72.1461 67.3994 75.4232C66.3036 78.948 64.5954 82.3429 62.3185 85.5126C59.2685 89.7579 56.011 93.9842 52.6365 98.0736L52.6382 98.0719Z" fill="#773838"/>
<path d="M59.7553 74.0672C57.9093 74.0672 55.819 73.4177 54.8524 72.1637L55.334 71.7982C56.5972 73.4385 60.2003 73.9096 61.8666 73.0522C62.4441 72.756 62.9588 72.3057 63.4543 71.8727L65.1381 70.3952C65.8552 69.7664 66.445 69.2399 66.9789 68.6406L67.4325 69.039C66.8323 69.7128 66.1152 70.3415 65.5394 70.8455L63.8609 72.3178C63.3322 72.7803 62.7896 73.2549 62.1457 73.5857C61.5193 73.9079 60.6661 74.0672 59.7553 74.0672Z" fill="#773838"/>
<path d="M7.31842 39.0741L6.29421 32.8975L5.27001 39.0741L0.942871 39.9921L5.26826 41.0902L6.29421 47.2703L7.32016 41.092L11.7468 40.0406L7.31842 39.0741Z" fill="#7767BF"/>
<path d="M101.94 12.3667L100.326 2.64453L98.7135 12.3667L91.9018 13.8112L98.7118 15.5416L100.326 25.2707L101.94 15.5451L108.909 13.8892L101.94 12.3667Z" fill="#7767BF"/>
<path d="M15.9588 24.5832L15.212 20.0815L14.4652 24.5815L11.3123 25.25L14.4652 26.052L15.212 30.5554L15.9588 26.0537L19.1849 25.2864L15.9588 24.5832Z" fill="#7767BF"/>
<path d="M11.6036 59.2719L10.8569 54.772L10.1101 59.2719L6.95721 59.9405L10.1101 60.7425L10.8569 65.2459L11.6036 60.7442L14.8298 59.9769L11.6036 59.2719Z" fill="#7767BF"/>
<path d="M88.7227 4.53782L87.9759 0.0361328L87.2291 4.53608L84.0763 5.2064L87.2291 6.00662L87.9759 10.51L88.7227 6.00835L91.9489 5.24104L88.7227 4.53782Z" fill="#7767BF"/>
</g>
</g>
<defs>
<clipPath id="clip0_0_736">
<rect width="110" height="165" fill="white" transform="translate(0.942871 0.0361328)"/>
</clipPath>
</defs>
</svg>
