<svg width="627" height="262" viewBox="0 0 627 262" fill="none" xmlns="http://www.w3.org/2000/svg">
<g clip-path="url(#clip0_0_807)">
<g clip-path="url(#clip1_0_807)">
<path d="M94.3232 161.256C103.685 161.256 112.714 162.64 121.232 165.229C121.871 74.641 195.331 1.40625 285.853 1.40625C358.853 1.40625 420.752 49.0589 442.314 114.988C460.193 105.016 480.758 99.3003 502.679 99.3003C571.33 99.3003 626.963 155.053 626.963 223.853C626.963 292.653 571.33 348.406 502.679 348.406H94.3232C42.7576 348.406 0.962875 306.521 0.962875 254.844C0.962875 203.167 42.7576 161.282 94.3232 161.282V161.256Z" fill="#0F2C23"/>
</g>
</g>
<defs>
<clipPath id="clip0_0_807">
<rect width="626" height="348" fill="white" transform="translate(0.962875 0.90625)"/>
</clipPath>
<clipPath id="clip1_0_807">
<rect width="626" height="347" fill="white" transform="translate(0.962875 1.40625)"/>
</clipPath>
</defs>
</svg>
