<svg width="398" height="417" viewBox="0 0 398 417" fill="none" xmlns="http://www.w3.org/2000/svg">
<g clip-path="url(#clip0_0_211)">
<mask id="mask0_0_211" style="mask-type:luminance" maskUnits="userSpaceOnUse" x="0" y="0" width="398" height="417">
<path d="M397.943 0.326172H0.942871V416.326H397.943V0.326172Z" fill="white"/>
</mask>
<g mask="url(#mask0_0_211)">
<path d="M289.453 225.239L229.735 390.463L210.325 378.276L184.927 362.322L138.8 333.366L131.406 328.72L117.537 320.013L83.9263 298.909L64.4208 286.66L199.44 175.937L204.715 178.825L215.965 184.988L221.693 188.129L222.092 188.343L264.864 211.773L266.622 212.734L289.453 225.239Z" fill="#E0DFFE"/>
<g style="mix-blend-mode:multiply">
<path d="M215.965 184.988L117.537 320.013L83.9263 298.909L204.715 178.825L215.965 184.988Z" fill="#AEAECC"/>
</g>
<g style="mix-blend-mode:multiply">
<path d="M222.092 188.341C194.331 236.687 166.566 285.02 138.8 333.366L131.406 328.72C161.5 281.849 191.599 234.991 221.693 188.129L222.092 188.346V188.341Z" fill="#AEAECC"/>
</g>
<g style="mix-blend-mode:multiply">
<path d="M266.622 212.734C247.856 267.914 229.086 323.093 210.32 378.276L184.923 362.322C211.57 312.145 238.212 261.959 264.864 211.773L266.622 212.734Z" fill="#AEAECC"/>
</g>
<path d="M267.232 400.837C262.796 407.419 255.86 411.894 248.035 413.203C241.712 414.269 235.248 413.185 229.665 410.211C223.637 414.151 216.37 416.214 208.802 415.774C195.498 414.987 184.034 406.64 179.047 394.639C177.694 395.208 176.275 395.657 174.795 395.966C166.744 397.628 158.536 394.775 153.231 388.754C144.009 395.187 132.603 397.74 121.493 395.804C109.968 393.803 99.7762 387.171 93.2873 377.445C89.4968 371.76 87.1685 365.314 86.4026 358.659C83.8349 359.594 81.0497 359.869 78.2992 359.399C74.0603 358.672 70.2959 356.263 67.8718 352.713C65.4478 349.168 64.5643 344.784 65.4347 340.573C65.796 338.829 66.4444 337.181 67.3322 335.685C61.1786 335.11 55.225 332.775 50.242 328.834C41.9211 322.249 37.3558 312.005 38.0173 301.419C38.6788 290.832 44.493 281.236 53.5756 275.739C56.9397 273.703 60.5954 272.324 64.3598 271.619C68.2635 270.884 72.2847 270.866 76.2145 271.593C75.7706 267 77.4548 262.437 80.7972 259.232C84.27 255.905 89.1138 254.425 93.8488 255.243C96.943 255.778 99.7457 257.257 101.922 259.414C105.26 247.749 115.33 238.658 128.124 237.17C143.522 235.383 157.619 245.214 161.57 259.766C165.164 257.37 169.164 255.561 173.424 254.452C183.542 251.82 194.301 253.338 203.297 258.675C212.292 264.011 218.781 272.711 221.322 282.855C223.473 291.445 222.632 300.458 219.034 308.443C235.192 302.719 253.597 308.774 263.001 323.702C263.193 324.002 263.375 324.298 263.558 324.602C270.948 337.081 270.222 352.114 262.953 363.583C267.179 367.524 270.174 372.674 271.452 378.407C273.189 386.14 271.662 394.252 267.24 400.833L267.232 400.837Z" fill="#E0DFFE"/>
<g style="mix-blend-mode:multiply">
<path d="M267.232 400.837C262.796 407.419 255.86 411.894 248.035 413.203C241.712 414.269 235.248 413.185 229.665 410.211C223.637 414.151 216.37 416.213 208.802 415.773C195.498 414.987 184.034 406.639 179.047 394.639C177.694 395.208 176.275 395.657 174.795 395.966C166.744 397.628 158.536 394.774 153.231 388.754C144.009 395.187 132.603 397.74 121.493 395.804C109.968 393.803 99.7762 387.171 93.2873 377.445C89.4968 371.76 87.1685 365.314 86.4026 358.659C83.8349 359.594 81.0497 359.869 78.2992 359.399C74.0603 358.672 70.2959 356.263 67.8718 352.713C65.4478 349.168 64.5643 344.784 65.4347 340.573C65.796 338.829 66.4444 337.181 67.3322 335.684C61.1786 335.11 55.225 332.775 50.242 328.834C41.9211 322.249 37.3558 312.005 38.0173 301.419C38.6788 290.832 44.493 281.236 53.5756 275.739C56.9397 273.703 60.5954 272.324 64.3598 271.619C64.0726 272.394 63.8027 273.168 63.5939 273.933C61.4657 281.65 62.0837 290.088 65.8569 297.212C72.1673 309.113 85.6757 316.281 99.1451 316.729C99.5237 331.931 109.707 346.442 123.882 351.978C138.057 357.507 155.382 353.74 165.97 342.818C170.447 355.776 181.902 364.975 195.154 366.271C209.986 367.719 224.412 359.012 230.396 344.745C232.142 345.037 244.928 346.95 254.759 337.981C260.465 332.775 262.352 326.481 263.001 323.71C263.193 324.01 263.375 324.306 263.558 324.611C270.948 337.09 270.222 352.122 262.953 363.591C267.179 367.532 270.174 372.682 271.452 378.415C273.189 386.149 271.662 394.26 267.24 400.842L267.232 400.837Z" fill="#AEAECC"/>
</g>
<path d="M210.86 416.326C210.168 416.326 209.472 416.305 208.772 416.265C195.689 415.495 183.969 407.278 178.777 395.283C177.52 395.783 176.214 396.175 174.891 396.448C166.922 398.093 158.632 395.395 153.153 389.411C143.818 395.787 132.56 398.237 121.405 396.296C109.803 394.283 99.4063 387.511 92.8739 377.723C89.2095 372.225 86.8334 365.88 85.9847 359.333C83.478 360.142 80.8059 360.334 78.2121 359.894C73.8601 359.151 69.9434 356.637 67.4583 353.001C64.9691 349.36 64.0507 344.797 64.943 340.477C65.2607 338.951 65.7915 337.481 66.527 336.102C60.456 335.393 54.7332 333.027 49.933 329.23C41.4858 322.544 36.8466 312.14 37.5212 301.393C38.1957 290.645 44.1013 280.902 53.3145 275.325C60.0252 271.267 67.9415 269.744 75.6706 271.01C75.4138 266.452 77.1372 262.068 80.449 258.887C84.0177 255.47 89.0572 253.929 93.9271 254.773C96.8211 255.273 99.4846 256.565 101.674 258.523C105.39 246.67 115.661 238.14 128.06 236.697C135.575 235.822 143.161 237.688 149.41 241.947C155.412 246.039 159.811 252.077 161.853 258.997C165.391 256.726 169.234 255.043 173.294 253.99C183.473 251.342 194.501 252.899 203.545 258.266C212.588 263.634 219.242 272.554 221.792 282.751C223.86 291.006 223.19 299.796 219.921 307.634C236.603 302.271 254.984 309.191 263.976 324.367C271.184 336.537 271.022 351.504 263.576 363.518C267.775 367.537 270.661 372.644 271.932 378.311C273.69 386.14 272.127 394.457 267.645 401.12C263.158 407.783 256.042 412.367 248.126 413.695C241.859 414.747 235.328 413.713 229.7 410.789C224.029 414.434 217.562 416.331 210.873 416.331L210.86 416.326ZM179.312 393.995L179.504 394.452C184.448 406.348 195.963 414.525 208.837 415.282C216.153 415.709 223.263 413.817 229.4 409.802L229.644 409.641L229.9 409.78C235.397 412.707 241.807 413.751 247.961 412.72C255.615 411.437 262.491 407.005 266.826 400.567C271.157 394.126 272.667 386.092 270.97 378.524C269.717 372.917 266.822 367.881 262.609 363.957L262.309 363.679L262.526 363.335C269.986 351.578 270.217 336.838 263.127 324.872C254.188 309.779 235.71 303.071 219.19 308.921L218.102 309.309L218.577 308.256C222.132 300.362 222.937 291.388 220.835 282.989C218.345 273.046 211.861 264.342 203.04 259.114C194.223 253.881 183.469 252.363 173.542 254.947C169.373 256.031 165.434 257.797 161.836 260.193L161.265 260.572L161.086 259.91C157.174 245.508 143.035 235.957 128.172 237.68C115.905 239.11 105.786 247.701 102.392 259.571L102.161 260.372L101.569 259.784C99.4237 257.657 96.7211 256.261 93.7617 255.748C89.1966 254.96 84.4747 256.4 81.1323 259.606C77.8813 262.724 76.2668 267.078 76.702 271.563L76.7629 272.215L76.1188 272.098C68.4289 270.684 60.5126 272.137 53.8236 276.177C44.8848 281.584 39.1575 291.041 38.5047 301.462C37.852 311.889 42.3519 321.979 50.5466 328.464C55.3947 332.3 61.2133 334.632 67.3714 335.206L68.146 335.28L67.7499 335.949C66.8752 337.424 66.2573 339.016 65.9091 340.686C65.0735 344.741 65.9352 349.029 68.2723 352.453C70.6048 355.871 74.2909 358.232 78.3775 358.929C81.0061 359.377 83.7217 359.129 86.2284 358.211L86.816 357.999L86.8856 358.62C87.6472 365.228 89.9973 371.647 93.6921 377.184C100.072 386.749 110.234 393.365 121.571 395.335C132.611 397.254 143.757 394.774 152.945 388.363L153.306 388.11L153.597 388.441C158.841 394.396 166.919 397.097 174.691 395.491C176.11 395.195 177.511 394.761 178.847 394.195L179.304 394.004L179.312 393.995Z" fill="#3D3B3B"/>
<path d="M67.38 336.768L66.4922 336.341C67.4933 334.249 68.9381 332.326 70.6702 330.782L71.3274 331.517C69.691 332.975 68.3289 334.789 67.3845 336.763L67.38 336.768Z" fill="#3D3B3B"/>
<path d="M86.0239 359.472L85.6583 358.555C88.3435 357.489 90.8851 356.08 93.2047 354.366L93.7921 355.157C91.403 356.923 88.7874 358.376 86.0239 359.472Z" fill="#3D3B3B"/>
<path d="M101.417 266.495C101.095 263.695 101.208 260.876 101.743 258.109L102.709 258.296C102.192 260.963 102.083 263.685 102.392 266.383L101.413 266.495H101.417Z" fill="#3D3B3B"/>
<path d="M162.2 266.8L161.227 266.666C161.601 263.96 161.404 261.145 160.66 258.518L161.609 258.249C162.392 261.006 162.597 263.965 162.205 266.805L162.2 266.8Z" fill="#3D3B3B"/>
<path d="M229.765 410.919C227.655 409.963 225.9 408.202 224.956 406.083L225.857 405.683C226.706 407.583 228.276 409.162 230.17 410.019L229.761 410.916L229.765 410.919Z" fill="#3D3B3B"/>
<path d="M262.47 363.874C260.773 362.631 258.902 361.656 256.905 360.986L257.218 360.051C259.311 360.756 261.269 361.774 263.049 363.078L262.466 363.874H262.47Z" fill="#3D3B3B"/>
<path d="M338.925 184.397C329.778 194.196 317.048 206.688 300.372 219.867C295.293 223.882 289.849 227.958 284.022 232.042C283.012 231.176 266.566 217.08 265.543 216.205C264.533 215.339 248.087 201.243 247.068 200.368C240.484 196.689 233.455 192.987 225.983 189.351C218.002 185.466 210.282 182.022 202.892 178.969C203.876 172.087 205.072 165.507 206.421 159.243C212.292 131.967 221.074 110.658 228.246 96.0086C241.429 69.0628 258.462 35.3795 295.349 15.467C304.071 10.7608 311.843 7.92918 317.206 6.25023C328.098 2.90103 343.334 -0.0218934 362.631 1.41347C371.082 2.04417 378.646 6.95051 382.616 14.4231C391.35 30.8733 394.87 45.5184 396.289 56.736C396.999 62.3339 397.708 71.0636 396.799 81.5983C393.007 125.603 364.846 156.603 338.922 184.392L338.925 184.397Z" fill="#F9B0C3"/>
<path d="M300.376 219.867C295.297 223.882 289.853 227.958 284.025 232.043C283.016 231.177 266.569 217.08 265.548 216.205C264.538 215.339 248.092 201.243 247.073 200.368C240.489 196.689 233.46 192.987 225.988 189.351C218.006 185.467 210.285 182.022 202.896 178.969C203.879 172.087 205.076 165.507 206.426 159.243C221.496 164.297 238.648 171.809 256.282 183.066C274.647 194.792 289.156 207.784 300.376 219.867Z" fill="#FFC212"/>
<path d="M396.802 81.6026C392.189 71.9684 381.088 52.1298 358.405 36.3103C332.263 18.0768 305.96 15.8063 295.345 15.467C300.159 12.9486 307.578 9.20795 317.201 6.25023C328.094 2.90103 343.33 -0.0218934 362.627 1.41347C371.078 2.04417 378.642 6.95051 382.611 14.4231C391.345 30.8733 394.866 45.5184 396.285 56.736C397.329 64.9698 397.481 73.2776 396.794 81.5983L396.802 81.6026Z" fill="#FFC212"/>
<path d="M397.299 84.2952L396.158 81.9115C390.126 69.3108 378.611 51.2731 358.001 36.8976C334.761 20.6909 311.091 16.6893 295.327 16.1804L292.607 16.0935L295.019 14.8321C300.789 11.8178 307.917 8.35551 316.996 5.56741C331.362 1.15257 346.737 -0.487228 362.688 0.700212C371.461 1.35265 379.147 6.35903 383.25 14.0883C390.535 27.8069 395.161 42.1302 397.003 56.649C398.039 64.8176 398.213 73.2298 397.516 81.6593L397.299 84.2952ZM298.069 14.8713C313.959 15.7455 336.581 20.2212 358.819 35.7275C378.424 49.4026 389.901 66.3444 396.281 78.9234C396.733 71.4726 396.498 64.0565 395.584 56.8318C393.765 42.4825 389.191 28.3289 381.988 14.7625C378.116 7.46818 370.861 2.74452 362.583 2.13123C346.807 0.956838 331.614 2.57488 317.418 6.93754C309.663 9.32112 303.339 12.2049 298.074 14.8756L298.069 14.8713Z" fill="#3D3B3B"/>
<path d="M283.982 232.947L283.56 232.586C282.838 231.969 274.26 224.614 269.033 220.137L265.086 216.754C264.25 216.036 252.9 206.306 248.391 202.44L246.668 200.96C239.792 197.119 232.733 193.432 225.678 189.995C218.102 186.307 210.347 182.818 202.626 179.629L202.113 179.417L202.191 178.869C203.144 172.226 204.333 165.572 205.729 159.096C210.49 136.965 217.854 115.634 227.611 95.6957C240.083 70.194 257.17 35.2711 295.014 14.841C301.99 11.0743 309.384 7.9556 316.996 5.57202C331.367 1.15283 346.737 -0.482621 362.691 0.704819C371.465 1.35726 379.151 6.36364 383.255 14.0929C390.54 27.8115 395.166 42.1348 397.007 56.6537C398.06 64.9745 398.234 73.391 397.521 81.6683C393.635 126.813 363.592 159.018 339.457 184.889C327.628 197.568 314.629 209.525 300.824 220.433C295.506 224.64 289.992 228.741 284.443 232.63L283.986 232.947H283.982ZM203.684 178.52C211.26 181.665 218.868 185.093 226.301 188.712C233.399 192.169 240.505 195.88 247.426 199.747L247.543 199.83L249.323 201.356C253.832 205.224 265.185 214.953 266.018 215.67L269.965 219.055C274.682 223.1 282.136 229.485 284.069 231.143C289.444 227.363 294.779 223.382 299.932 219.311C313.68 208.451 326.623 196.537 338.404 183.914C362.392 158.2 392.246 126.199 396.089 81.5465C396.794 73.3692 396.62 65.0528 395.58 56.832C393.761 42.4827 389.186 28.3291 381.984 14.7627C378.111 7.46844 370.856 2.74478 362.579 2.13148C346.803 0.957096 331.61 2.57514 317.414 6.93779C309.894 9.29528 302.587 12.3791 295.688 16.0981C258.244 36.3107 241.28 70.9987 228.89 96.3221C219.186 116.156 211.861 137.378 207.126 159.395C205.777 165.663 204.619 172.097 203.689 178.52H203.684Z" fill="#3D3B3B"/>
<path d="M283.982 232.947L283.56 232.586C282.838 231.969 274.26 224.614 269.033 220.137L265.086 216.754C264.25 216.036 252.9 206.306 248.391 202.439L246.668 200.96C239.792 197.119 232.733 193.43 225.678 189.995C218.102 186.307 210.347 182.818 202.626 179.629L202.113 179.417L202.191 178.868C203.144 172.226 204.333 165.572 205.729 159.095L205.899 158.313L206.656 158.564C224.243 164.468 241.071 172.505 256.67 182.461C272.897 192.821 287.777 205.24 300.902 219.381L301.429 219.947L300.819 220.425C295.501 224.63 289.988 228.733 284.439 232.621L283.982 232.938V232.947ZM203.684 178.52C211.26 181.665 218.868 185.092 226.301 188.712C233.399 192.169 240.505 195.88 247.426 199.747L247.543 199.829L249.323 201.356C253.832 205.222 265.185 214.953 266.018 215.67L269.965 219.055C274.682 223.1 282.136 229.485 284.069 231.141C289.231 227.51 294.357 223.695 299.322 219.794C286.411 205.98 271.801 193.827 255.895 183.674C240.619 173.923 224.16 166.024 206.957 160.183C205.677 166.202 204.58 172.366 203.684 178.525V178.52Z" fill="#3D3B3B"/>
<path d="M244.427 118.592C237.677 128.4 230.932 138.213 224.182 148.022C217.084 158.334 209.99 168.647 202.892 178.964C194.114 178.082 184.301 177.642 173.633 178.016C152.392 178.769 134.201 182.548 119.926 186.732L147.883 143.893C161.005 123.785 184.244 112.646 208.144 115.008L244.423 118.587L244.427 118.592Z" fill="#7767BF"/>
<path d="M224.182 148.025C217.084 158.338 209.99 168.652 202.892 178.969C194.114 178.085 184.301 177.646 173.633 178.021C152.392 178.773 134.201 182.552 119.926 186.737C126.48 178.79 145.628 157.73 178.234 149.53C197.06 144.798 213.428 146.099 224.177 148.025H224.182Z" fill="#46467A"/>
<path d="M282.994 231.181C287.337 238.854 291.698 247.648 295.654 257.565C303.526 277.296 307.401 295.459 309.323 310.201C318.641 295.921 327.963 281.64 337.281 267.361C350.406 247.253 351.237 221.512 339.439 200.595L321.535 168.855C308.689 189.629 295.841 210.407 282.994 231.181Z" fill="#7767BF"/>
<path d="M240.306 225.483C234.566 232.538 227.963 239.206 220.405 244.469C219.272 245.252 218.107 246.013 216.844 246.713L215.347 245.735C216.592 235.187 220.595 225.052 225.331 215.713C227.663 211.142 230.496 206.905 233.77 202.948C235.392 200.964 237.076 199.016 238.73 197.055C240.972 194.427 243.778 190.782 246.207 187.606C246.916 186.676 247.595 185.789 248.213 184.975C252.383 179.556 258.21 172.223 262.518 166.907C268.985 158.935 275.5 151.004 282.237 143.237L283.734 144.215C275.856 160.701 267.336 177.286 258.544 193.4C257.544 195.236 256.539 197.063 255.534 198.885C253.035 203.357 250.898 208.05 248.596 212.622C246.29 217.206 243.552 221.504 240.31 225.483H240.306Z" fill="#7767BF"/>
<path d="M302.743 199.238C296.163 209.886 289.574 220.533 282.99 231.181C287.337 238.854 291.693 247.648 295.65 257.562C303.523 277.291 307.396 295.455 309.319 310.196C313.954 300.997 325.522 274.99 319.881 241.864C316.626 222.739 308.836 208.289 302.74 199.233L302.743 199.238Z" fill="#46467A"/>
<path d="M240.306 225.483C234.566 232.538 227.963 239.206 220.405 244.469C219.272 245.252 218.107 246.013 216.844 246.713L215.347 245.735C216.592 235.187 220.595 225.052 225.331 215.713C227.663 211.142 230.496 206.906 233.77 202.948C235.392 200.964 237.076 199.016 238.73 197.055C240.972 194.427 243.778 190.782 246.207 187.606C245.767 192.091 246.477 195.289 248.247 196.393C250.237 197.637 254.027 196.537 258.549 193.392C257.549 195.228 256.542 197.055 255.537 198.877C253.039 203.349 250.903 208.041 248.6 212.613C246.294 217.198 243.557 221.494 240.315 225.474L240.306 225.483Z" fill="#46467A"/>
<path d="M216.809 247.544L214.582 246.091L214.633 245.652C215.731 236.392 218.925 226.775 224.687 215.392C226.98 210.904 229.848 206.566 233.212 202.495C234.27 201.209 235.366 199.911 236.429 198.663C237.012 197.976 237.599 197.29 238.177 196.598C240.715 193.622 243.974 189.347 246.595 185.915L247.643 184.545C252.004 178.878 257.975 171.379 261.961 166.459C267.732 159.344 274.591 150.966 281.697 142.771L282.106 142.302L284.653 143.959L284.383 144.523C275.826 162.44 266.331 180.847 256.16 199.229C254.484 202.238 252.939 205.401 251.446 208.463C250.729 209.937 249.984 211.46 249.236 212.948C246.865 217.663 244.048 222.034 240.863 225.94C234.444 233.834 227.698 240.267 220.817 245.061C219.873 245.713 218.607 246.561 217.193 247.344L216.814 247.554L216.809 247.544ZM216.105 245.382L216.866 245.879C218.075 245.187 219.163 244.456 219.994 243.882C226.766 239.166 233.412 232.826 239.749 225.031C242.865 221.208 245.624 216.923 247.952 212.299C248.696 210.821 249.441 209.303 250.154 207.832C251.656 204.754 253.209 201.573 254.902 198.533C264.951 180.369 274.338 162.184 282.815 144.472L282.363 144.181C275.417 152.209 268.72 160.396 263.066 167.364C259.084 172.274 253.122 179.76 248.775 185.419L247.731 186.785C245.101 190.234 241.825 194.523 239.265 197.525C238.687 198.211 238.099 198.903 237.512 199.595C236.454 200.843 235.358 202.13 234.308 203.408C231.01 207.402 228.203 211.652 225.957 216.044C220.365 227.088 217.227 236.427 216.105 245.382Z" fill="#3D3B3B"/>
<path d="M118.272 187.967L147.287 143.506C160.604 123.098 183.951 111.902 208.219 114.299L245.702 117.996L224.773 148.426C217.675 158.738 210.582 169.052 203.488 179.369L203.249 179.717L202.826 179.674C193.178 178.703 183.369 178.386 173.664 178.729C155.634 179.369 137.625 182.287 120.135 187.416L118.276 187.959L118.272 187.967ZM201.739 115.412C180.34 115.412 160.347 126.112 148.483 144.29L121.579 185.519C138.605 180.692 156.099 177.929 173.611 177.311C183.243 176.971 192.973 177.276 202.548 178.221C209.563 168.021 216.579 157.821 223.599 147.625L243.156 119.192L208.083 115.73C205.96 115.521 203.845 115.417 201.743 115.417L201.739 115.412Z" fill="#3D3B3B"/>
<path d="M308.863 312.21L308.614 310.287C306.26 292.232 301.677 274.582 294.993 257.827C291.402 248.832 287.159 239.985 282.376 231.533L282.168 231.164L282.389 230.803L321.565 167.447L340.061 200.242C352.034 221.469 351.199 247.335 337.881 267.748L308.866 312.21H308.863ZM283.825 231.199C288.556 239.598 292.759 248.375 296.32 257.3C302.813 273.577 307.339 290.688 309.776 308.2L336.68 266.97C349.706 247.009 350.524 221.708 338.817 200.947L321.509 170.26L283.83 231.199H283.825Z" fill="#3D3B3B"/>
<path d="M293.226 121.58C291.124 120.21 289.14 118.918 287.098 117.583C289.092 114.529 291.067 111.502 293.082 108.409C289.597 105.565 285.767 103.329 282.045 100.815C283.016 99.7623 283.943 98.7531 284.87 97.744C285.661 96.8828 286.467 96.0303 287.229 95.143C287.537 94.7864 287.777 94.8081 288.133 95.0429C289.387 95.878 290.64 96.7001 291.916 97.5047C293.36 98.4138 294.052 98.2703 294.966 96.8742C300.385 88.5795 305.803 80.2804 311.212 71.977C312.296 70.3111 311.992 68.6234 310.399 67.4055C309.715 66.8837 308.984 66.4226 308.27 65.9441C307.556 65.47 306.839 65.0089 306.078 64.5131C307.343 62.5732 308.588 60.668 309.859 58.7194C313.497 61.0943 317.11 63.4431 320.782 65.8397C322.837 62.6906 324.869 59.5807 326.928 56.4185C329.003 57.7712 331.014 59.0805 333.077 60.4288C331.075 63.4953 329.086 66.5444 327.092 69.5977C328.569 70.559 329.991 71.4854 331.48 72.4599C333.49 69.376 335.466 66.3486 337.468 63.2822C339.339 64.5044 341.146 65.6788 343.003 66.8923C340.972 70.0067 338.935 73.1254 336.902 76.2439C338.208 77.4314 339.522 78.5188 340.71 79.7323C342.834 81.8941 344.644 84.2776 345.376 87.305C346.007 89.9192 345.459 92.3636 344.262 94.695C343.391 96.3869 342.29 97.9049 340.78 99.1011C338.917 100.576 336.776 101.18 334.435 101.163C334.082 101.163 333.734 101.132 333.486 101.124C334.347 102.446 335.352 103.725 336.079 105.147C337.712 108.322 337.576 111.554 335.902 114.686C334.365 117.556 332.354 120.031 329.569 121.806C326.531 123.741 323.246 124.072 319.785 123.337C316.278 122.593 313.066 121.149 309.998 119.335C309.803 119.218 309.603 119.105 309.397 118.996C309.333 118.961 309.254 118.953 309.124 118.914C307.147 121.941 305.167 124.977 303.162 128.052C301.303 126.838 299.497 125.664 297.621 124.442C299.566 121.462 301.511 118.483 303.501 115.43C302.016 114.464 300.598 113.537 299.105 112.563C297.173 115.525 295.215 118.526 293.216 121.585L293.226 121.58ZM311.752 93.2335C309.032 97.4048 306.347 101.515 303.675 105.612C305.659 106.909 307.553 108.261 309.558 109.418C312.04 110.845 314.638 112.024 317.558 112.293C321.557 112.659 324.695 109.449 324.229 105.46C323.989 103.407 322.776 101.902 321.474 100.463C318.732 97.4352 315.221 95.43 311.757 93.2378L311.752 93.2335ZM315.421 87.5964C315.835 87.8661 316.199 88.0967 316.557 88.3402C319.312 90.1975 322.118 91.9808 325.395 92.7507C327.241 93.1813 329.112 93.1814 330.718 91.9156C333.321 89.8626 333.794 86.3916 331.907 83.6514C330.657 81.8376 329.003 80.4413 327.245 79.1799C325.822 78.1577 324.317 77.2488 322.81 76.27C320.322 80.0847 317.901 83.7949 315.416 87.6007L315.421 87.5964Z" fill="#3D3B3B"/>
<path d="M291.049 119.475C288.948 118.105 286.963 116.813 284.923 115.477C286.915 112.424 288.891 109.397 290.906 106.304C287.42 103.46 283.59 101.224 279.87 98.7097C280.84 97.6571 281.767 96.648 282.694 95.6389C283.486 94.7777 284.291 93.9252 285.052 93.0378C285.362 92.6811 285.601 92.703 285.958 92.9378C287.211 93.7729 288.464 94.595 289.739 95.3997C291.185 96.3087 291.877 96.1652 292.791 94.7689C298.208 86.4742 303.627 78.1752 309.036 69.8719C310.12 68.206 309.815 66.5183 308.222 65.3004C307.54 64.7785 306.808 64.3174 306.094 63.8389C305.381 63.3649 304.662 62.9038 303.901 62.408C305.167 60.468 306.412 58.5629 307.684 56.6143C311.321 58.9892 314.934 61.338 318.606 63.7346C320.661 60.5855 322.693 57.4756 324.751 54.3134C326.827 55.666 328.837 56.9753 330.9 58.3236C328.898 61.3902 326.91 64.4392 324.916 67.4926C326.392 68.4539 327.815 69.3803 329.304 70.3503C331.314 67.2664 333.289 64.2391 335.292 61.1727C337.164 62.3949 338.97 63.5693 340.828 64.7829C338.795 67.8971 336.758 71.0158 334.726 74.1345C336.031 75.322 337.346 76.4093 338.534 77.6229C340.657 79.7845 342.468 82.1682 343.199 85.1955C343.831 87.8096 343.282 90.2541 342.086 92.5855C341.215 94.2774 340.114 95.7955 338.604 96.9916C336.741 98.4662 334.6 99.0708 332.258 99.0534C331.907 99.0534 331.558 99.0229 331.309 99.0142C332.172 100.337 333.177 101.615 333.904 103.038C335.536 106.213 335.4 109.445 333.725 112.576C332.188 115.447 330.178 117.922 327.393 119.697C324.355 121.632 321.07 121.962 317.61 121.227C314.103 120.484 310.891 119.04 307.823 117.226C307.626 117.108 307.426 116.995 307.222 116.887C307.156 116.852 307.078 116.843 306.947 116.804C304.972 119.831 302.992 122.868 300.985 125.943C299.127 124.729 297.321 123.554 295.445 122.333C297.39 119.353 299.336 116.373 301.324 113.32C299.841 112.354 298.422 111.428 296.93 110.454C294.998 113.416 293.039 116.417 291.041 119.475H291.049ZM309.576 91.1327C306.856 95.304 304.171 99.4144 301.498 103.512C303.483 104.808 305.376 106.161 307.383 107.318C309.863 108.744 312.462 109.923 315.381 110.193C319.381 110.558 322.519 107.348 322.054 103.359C321.814 101.306 320.6 99.8015 319.298 98.3618C316.557 95.3344 313.045 93.3292 309.581 91.137L309.576 91.1327ZM313.245 85.4913C313.658 85.7609 314.024 85.9915 314.381 86.2351C317.136 88.0923 319.943 89.8757 323.219 90.6455C325.065 91.0761 326.936 91.0761 328.542 89.8104C331.145 87.7574 331.619 84.2865 329.73 81.5461C328.481 79.7324 326.827 78.3362 325.069 77.0748C323.646 76.0527 322.14 75.1436 320.635 74.1649C318.145 77.9796 315.726 81.6898 313.24 85.4956L313.245 85.4913Z" fill="#FFC212"/>
<path d="M301.203 126.952L294.445 122.545L300.324 113.533L297.152 111.467L291.263 120.488L283.913 115.695L289.936 106.465C287.651 104.656 285.179 103.055 282.785 101.502C281.697 100.798 280.565 100.067 279.464 99.3186L278.764 98.8445L280.105 97.3874C280.8 96.6306 281.479 95.8911 282.159 95.1517L282.759 94.4993C283.338 93.8686 283.939 93.2205 284.504 92.5637C284.87 92.1374 285.492 91.7503 286.367 92.3332C287.39 93.0161 288.743 93.9078 290.132 94.782C291.241 95.4779 291.489 95.4301 292.181 94.3688C297.599 86.0741 303.018 77.7751 308.427 69.4717C309.298 68.1364 309.066 66.8619 307.783 65.879C307.27 65.4874 306.712 65.1177 306.169 64.761L305.69 64.4436C305.198 64.1174 304.702 63.7955 304.192 63.4648L302.892 62.6168L307.47 55.6008L318.393 62.7211L324.539 53.2999L331.91 58.1062L325.926 67.2751L329.09 69.3368L335.079 60.1591L341.837 64.5654L335.679 74.004C335.932 74.2301 336.184 74.452 336.437 74.6738C337.316 75.4523 338.22 76.2527 339.061 77.1052C340.879 78.9538 343.073 81.5244 343.917 85.0171C344.535 87.5834 344.152 90.1671 342.742 92.9116C341.733 94.8777 340.531 96.3957 339.064 97.5527C337.289 98.962 335.152 99.7057 332.715 99.7666C332.728 99.784 332.738 99.7971 332.75 99.8145C333.382 100.728 334.034 101.672 334.561 102.69C336.276 106.034 336.215 109.471 334.378 112.907C332.633 116.169 330.478 118.587 327.794 120.297C324.764 122.224 321.388 122.758 317.466 121.928C314.215 121.236 310.939 119.901 307.457 117.839C307.382 117.796 307.304 117.748 307.227 117.704L301.198 126.939L301.203 126.952ZM296.46 122.119L300.776 124.933L306.639 115.951L307.252 116.13C307.339 116.152 307.448 116.178 307.57 116.243C307.783 116.356 307.992 116.473 308.2 116.595C311.543 118.574 314.672 119.857 317.767 120.514C321.295 121.262 324.32 120.797 327.006 119.083C329.473 117.509 331.462 115.269 333.085 112.233C334.683 109.244 334.743 106.265 333.255 103.372C332.776 102.437 332.15 101.533 331.544 100.663C331.258 100.249 330.97 99.8362 330.7 99.4186L329.921 98.2268L331.592 98.3051C331.793 98.3182 332.028 98.3313 332.268 98.3313C332.302 98.3313 332.337 98.3313 332.375 98.3313C334.648 98.3313 336.541 97.7093 338.155 96.4262C339.452 95.3996 340.528 94.0339 341.442 92.2592C342.685 89.8409 343.03 87.5878 342.495 85.3738C341.737 82.2248 339.7 79.8542 338.016 78.1404C337.215 77.3271 336.367 76.5746 335.466 75.783C335.057 75.4219 334.644 75.0566 334.235 74.6824L333.773 74.2649L339.818 65.0046L335.501 62.1905L329.513 71.3681L323.903 67.7101L329.887 58.5412L324.961 55.3311L318.815 64.7524L307.892 57.6321L304.911 62.2035L304.985 62.2514C305.498 62.5863 306.003 62.9081 306.5 63.243L306.969 63.5562C307.531 63.9259 308.114 64.3087 308.667 64.7306C310.56 66.1747 310.939 68.3017 309.65 70.2763C304.24 78.5798 298.822 86.8788 293.403 95.1735C292.272 96.909 291.137 97.1438 289.352 96.0217C287.956 95.1431 286.598 94.247 285.57 93.5597C285.001 94.2166 284.404 94.8647 283.83 95.491L283.234 96.1391C282.555 96.8785 281.871 97.6223 281.174 98.3791L280.984 98.5835C281.85 99.1578 282.724 99.7274 283.577 100.28C286.184 101.967 288.883 103.716 291.367 105.747L291.877 106.161L285.931 115.269L290.837 118.466L296.725 109.444L302.343 113.107L296.463 122.119H296.46ZM315.991 110.945C315.765 110.945 315.538 110.936 315.312 110.915C312.005 110.61 309.141 109.171 307.017 107.944C305.607 107.135 304.236 106.213 302.913 105.321C302.313 104.921 301.712 104.516 301.102 104.116L300.49 103.716L309.358 90.1236L309.967 90.5107C310.407 90.7891 310.846 91.0631 311.286 91.3371C314.28 93.2074 317.379 95.143 319.838 97.8616C321.178 99.3448 322.51 100.98 322.776 103.264C323.024 105.386 322.345 107.444 320.913 108.91C319.633 110.219 317.871 110.941 315.991 110.941V110.945ZM302.508 103.299C302.917 103.568 303.323 103.842 303.727 104.112C305.094 105.03 306.382 105.895 307.748 106.678C309.742 107.826 312.422 109.179 315.447 109.458C317.131 109.619 318.746 109.04 319.868 107.892C320.991 106.739 321.522 105.117 321.327 103.433C321.108 101.576 319.986 100.202 318.754 98.8445C316.431 96.2782 313.553 94.4776 310.512 92.5768C310.272 92.4289 310.038 92.2766 309.798 92.1288L302.508 103.299ZM325.252 91.6285C324.569 91.6285 323.837 91.5372 323.059 91.3545C319.689 90.5673 316.84 88.7708 313.976 86.8396C313.737 86.6787 313.497 86.5221 313.236 86.3568L312.235 85.7044L320.426 73.1514L321.039 73.5516C321.501 73.8518 321.958 74.1432 322.419 74.4345C323.441 75.0871 324.499 75.7569 325.504 76.4789C327.006 77.5576 328.916 79.0626 330.339 81.1286C332.458 84.2038 331.897 88.0923 329.003 90.3802C327.946 91.2153 326.71 91.6285 325.256 91.6285H325.252ZM314.254 85.2781C314.437 85.3956 314.611 85.5129 314.79 85.6304C317.535 87.4791 320.26 89.2014 323.39 89.9321C325.4 90.402 326.897 90.1801 328.094 89.2319C330.365 87.4399 330.805 84.3778 329.133 81.955C327.837 80.0716 326.052 78.6711 324.647 77.6619C323.676 76.966 322.684 76.331 321.631 75.6612C321.375 75.4959 321.113 75.3305 320.852 75.1653L314.254 85.2738V85.2781Z" fill="#3D3B3B"/>
<path d="M135.162 353.84C132.563 355.619 129.54 356.567 126.467 356.645C125.775 361.743 123.356 366.489 119.551 370.051C114.951 374.37 108.759 376.562 102.461 376.101C96.164 375.645 90.3541 372.573 86.4286 367.633C83.7609 364.266 82.1289 360.247 81.6762 356.054C70.0957 360.247 57.0224 357.42 48.1965 348.594C41.0985 341.495 37.8823 331.653 39.0792 322.052C36.6639 323.101 34.0048 323.593 31.3196 323.457C26.5194 323.214 22.0369 320.978 18.947 317.291C15.8657 313.602 14.4557 308.799 15.065 304.033C15.2957 302.267 15.7874 300.57 16.5141 298.991C14.0205 297.439 11.5268 295.407 9.26379 292.75C8.07135 291.345 -1.48124 279.744 2.42249 265.33C4.78996 256.565 11.7749 248.075 20.8052 244.947C23.5992 243.982 26.5934 243.526 29.7006 243.739C30.3316 243.782 30.954 243.852 31.5546 243.943C32.264 241.564 33.3172 239.262 34.7184 237.131C39.6145 229.655 48.0181 225.213 56.9615 225.383C65.9091 225.549 74.1386 230.302 78.7517 237.962C80.9583 241.621 82.1855 245.7 82.4292 249.833C85.6975 246.753 90.3541 245.518 94.7801 246.649C99.75 247.923 103.528 251.951 104.489 256.987C104.985 259.597 104.676 262.224 103.684 264.573C111.309 259.64 120.648 257.805 129.722 259.649C141.09 261.954 150.577 269.731 155.068 280.414C159.563 291.102 158.475 303.311 152.178 313.041C147.966 319.548 141.782 324.381 134.674 326.951C134.949 327.12 135.219 327.303 135.484 327.49C135.837 327.747 136.184 328.017 136.52 328.303C140.337 331.557 142.413 336.398 142.147 341.404C141.877 346.406 139.292 351.003 135.158 353.831L135.162 353.84Z" fill="#E0DFFE"/>
<g style="mix-blend-mode:multiply">
<path d="M135.162 353.84C132.563 355.619 129.54 356.567 126.467 356.645C125.775 361.743 123.356 366.489 119.551 370.051C114.951 374.37 108.759 376.562 102.461 376.101C96.1639 375.644 90.3541 372.573 86.4286 367.632C83.7609 364.266 82.1289 360.246 81.6762 356.054C70.0957 360.246 57.0223 357.42 48.1965 348.594C41.0985 341.495 37.8823 331.653 39.0792 322.052C36.6639 323.101 34.0048 323.593 31.3196 323.457C26.5194 323.214 22.0369 320.978 18.947 317.29C15.8657 313.602 14.4557 308.799 15.065 304.032C15.2957 302.267 15.7874 300.57 16.5141 298.991C14.0205 297.439 11.5268 295.407 9.26379 292.75C8.07135 291.345 -1.48124 279.744 2.42249 265.33C4.78996 256.565 11.7749 248.075 20.8052 244.947C17.3367 250.576 14.8648 255.943 16.549 263.207C18.5422 271.789 26.0581 278.809 34.7577 280.214C34.1266 282.171 31.3936 291.297 36.1415 301.019C36.7248 302.21 42.2605 313.067 55.0422 315.829C65.0299 317.982 72.8722 313.784 74.7958 312.675C72.9201 322.392 76.2145 332.171 83.491 337.79C91.4377 343.931 104.816 345.636 112.001 338.155C117.389 332.545 116.749 324.424 116.553 322.54C118.115 323.363 125.697 327.221 135.489 327.49C135.841 327.747 136.189 328.017 136.524 328.303C140.341 331.557 142.416 336.398 142.151 341.404C141.881 346.406 139.297 351.003 135.162 353.831V353.84Z" fill="#AEAECC"/>
</g>
<path d="M104.089 376.705C103.532 376.705 102.975 376.684 102.418 376.644C95.9899 376.176 90.006 373.018 85.9935 367.972C83.417 364.723 81.7721 360.873 81.2106 356.794C69.5647 360.73 56.5219 357.698 47.8049 348.977C40.8809 342.053 37.495 332.596 38.4307 322.901C36.1634 323.745 33.7132 324.128 31.2891 324.002C26.3497 323.749 21.6974 321.431 18.5248 317.638C15.3523 313.841 13.8943 308.857 14.5167 303.958C14.7299 302.306 15.1695 300.709 15.8179 299.196C13.2024 297.512 10.8566 295.464 8.84169 293.103C7.00515 290.936 -1.96427 279.418 1.88723 265.181C4.42879 255.769 11.9577 247.427 20.6181 244.426C23.6035 243.395 26.6674 242.981 29.7311 243.186C30.1968 243.216 30.6755 243.264 31.163 243.33C31.8941 241.025 32.9342 238.837 34.2528 236.826C39.2837 229.142 47.7788 224.674 56.9658 224.831C66.1571 225.001 74.4737 229.802 79.2175 237.675C81.2368 241.02 82.4945 244.808 82.8862 248.701C86.2503 246 90.6675 245.03 94.915 246.114C100.063 247.431 104.032 251.658 105.025 256.883C105.429 259.028 105.325 261.216 104.72 263.29C112.305 258.831 121.162 257.348 129.831 259.114C141.381 261.459 151.008 269.34 155.573 280.201C160.137 291.057 159.041 303.445 152.64 313.34C148.635 319.526 142.704 324.376 135.863 327.09C136.219 327.351 136.563 327.621 136.876 327.89C140.794 331.231 142.969 336.293 142.696 341.439C142.421 346.581 139.719 351.387 135.467 354.292C132.939 356.023 130 357.016 126.937 357.176C126.144 362.244 123.664 366.946 119.921 370.451C115.635 374.474 109.938 376.71 104.089 376.71V376.705ZM82.1463 355.301L82.2203 355.998C82.6642 360.121 84.2657 364.026 86.8551 367.293C90.6761 372.095 96.3772 375.11 102.501 375.553C108.624 376.001 114.703 373.847 119.173 369.65C122.846 366.21 125.243 361.565 125.919 356.571L125.98 356.11L126.445 356.097C129.461 356.023 132.364 355.084 134.845 353.388C138.818 350.674 141.342 346.184 141.598 341.383C141.851 336.576 139.818 331.843 136.163 328.725C135.85 328.46 135.515 328.194 135.158 327.938C134.883 327.742 134.626 327.573 134.383 327.421L133.417 326.825L134.484 326.438C141.524 323.893 147.643 319.025 151.713 312.745C157.919 303.159 158.98 291.149 154.559 280.627C150.133 270.102 140.807 262.459 129.609 260.188C120.709 258.379 111.609 260.097 103.98 265.034L102.487 265.999L103.179 264.36C104.15 262.058 104.415 259.544 103.95 257.087C103.031 252.281 99.3802 248.388 94.6452 247.175C90.4064 246.091 85.9761 247.231 82.8034 250.223L81.9505 251.033L81.8808 249.858C81.6414 245.761 80.3968 241.746 78.2818 238.241C73.7339 230.694 65.7611 226.092 56.9484 225.926C48.127 225.761 39.9975 230.059 35.1754 237.427C33.8263 239.484 32.7862 241.725 32.0769 244.095L31.942 244.552L31.4719 244.482C30.854 244.391 30.2447 244.322 29.6616 244.282C26.7457 244.087 23.8212 244.482 20.9794 245.465C12.6453 248.353 5.39928 256.392 2.94912 265.469C-0.758768 279.174 7.90602 290.301 9.67726 292.393C11.7183 294.789 14.1163 296.851 16.8014 298.521L17.2105 298.778L17.006 299.218C16.2966 300.757 15.8266 302.397 15.6046 304.097C15.0172 308.695 16.388 313.375 19.3647 316.933C22.3458 320.491 26.7109 322.671 31.3457 322.906C33.9091 323.032 36.5115 322.567 38.8572 321.544L39.7364 321.162L39.6188 322.114C38.4133 331.792 41.6817 341.3 48.5795 348.198C57.1617 356.781 70.074 359.659 81.4848 355.531L82.142 355.293L82.1463 355.301Z" fill="#3D3B3B"/>
<path d="M314.515 377.332C319.211 383.939 319.229 393.009 314.124 399.685C308.475 407.075 298.331 409.193 290.241 404.86C281.797 412.869 269.707 416.07 258.231 413.051C247.221 410.154 238.552 401.986 234.857 391.503C231.21 392.817 227.175 392.742 223.546 391.241C219.304 389.489 216.044 385.967 214.62 381.608C213.198 377.245 213.759 372.473 216.153 368.563C216.844 367.428 217.675 366.401 218.612 365.493C214.185 362.439 211.017 357.824 209.794 352.522C208.585 347.259 209.381 341.783 211.961 337.133C212.449 336.25 213.001 335.398 213.62 334.584C217.484 329.46 223.42 326.311 229.831 325.985C233.313 325.807 236.728 326.473 239.836 327.864C248.191 320.935 259.837 318.59 270.609 322.474C282.673 326.825 290.592 337.902 291.324 350.177C296.965 347.763 303.505 348.259 308.737 351.591C309.694 352.205 310.611 352.913 311.469 353.714C318.045 359.864 319.28 369.786 314.515 377.336V377.332Z" fill="#E0DFFE"/>
<g style="mix-blend-mode:multiply">
<path d="M314.515 377.332C319.211 383.939 319.229 393.007 314.124 399.685C308.475 407.075 298.331 409.193 290.241 404.86C281.797 412.869 269.707 416.069 258.231 413.051C247.221 410.154 238.552 401.985 234.857 391.503C231.21 392.817 227.175 392.742 223.546 391.241C219.304 389.489 216.044 385.966 214.62 381.607C213.198 377.245 213.759 372.473 216.153 368.563C216.844 367.427 217.675 366.401 218.612 365.493C214.185 362.439 211.017 357.823 209.794 352.522C208.585 347.259 209.381 341.783 211.961 337.133C212.126 338.207 212.244 339.238 212.327 340.204C213.058 348.642 219.743 356.628 228.995 355.845C227.402 364.026 230.897 372.982 237.608 377.928C244.318 382.873 253.915 383.557 261.261 379.615C267.78 389.841 283.39 392.773 293.178 385.604C296.668 383.047 299.536 378.641 298.122 374.552C304.415 375.975 310.878 370.529 311.931 364.165C312.657 359.768 311.273 355.314 308.732 351.591C309.689 352.205 310.608 352.913 311.465 353.714C318.04 359.864 319.277 369.786 314.512 377.336L314.515 377.332Z" fill="#AEAECC"/>
</g>
<path d="M266.783 414.648C263.88 414.648 260.96 414.282 258.105 413.529C247.212 410.663 238.444 402.682 234.556 392.13C230.889 393.33 226.932 393.178 223.355 391.698C218.973 389.889 215.617 386.266 214.15 381.76C212.679 377.253 213.254 372.348 215.731 368.306C216.33 367.323 217.04 366.401 217.85 365.557C213.537 362.413 210.517 357.846 209.311 352.635C208.08 347.281 208.867 341.692 211.53 336.894C212.027 335.989 212.601 335.11 213.228 334.284C217.188 329.034 223.233 325.829 229.804 325.493C233.195 325.324 236.624 325.941 239.753 327.29C248.413 320.248 260.268 318.226 270.773 322.009C282.581 326.267 290.758 336.994 291.764 349.459C297.447 347.263 303.841 347.885 308.997 351.169C309.985 351.799 310.929 352.535 311.805 353.343C318.441 359.551 319.803 369.577 315.103 377.311C319.851 384.222 319.625 393.29 314.515 399.98C308.797 407.465 298.675 409.741 290.323 405.456C283.913 411.411 275.409 414.643 266.783 414.643V414.648ZM235.162 390.877L235.328 391.347C239.018 401.816 247.626 409.754 258.362 412.581C269.482 415.508 281.571 412.415 289.905 404.513L290.162 404.269L290.476 404.438C298.457 408.71 308.235 406.591 313.732 399.397C318.646 392.969 318.802 384.217 314.115 377.627L313.924 377.358L314.103 377.079C318.754 369.711 317.505 360.038 311.139 354.08C310.311 353.309 309.415 352.613 308.475 352.013C303.4 348.781 297.059 348.268 291.519 350.639L290.875 350.912L290.832 350.212C290.097 337.851 282.098 327.146 270.443 322.944C260.168 319.239 248.562 321.274 240.154 328.252L239.919 328.447L239.639 328.321C236.576 326.951 233.199 326.311 229.861 326.486C223.581 326.807 217.806 329.869 214.02 334.888C213.419 335.68 212.875 336.52 212.401 337.381C209.855 341.965 209.102 347.307 210.282 352.422C211.474 357.58 214.537 362.082 218.898 365.097L219.39 365.436L218.959 365.853C218.037 366.749 217.236 367.754 216.574 368.829C214.251 372.626 213.711 377.232 215.09 381.464C216.469 385.697 219.62 389.098 223.738 390.798C227.236 392.247 231.127 392.338 234.692 391.051L235.157 390.881L235.162 390.877Z" fill="#3D3B3B"/>
<path d="M73.5251 273.607L71.0358 258.505L68.5464 273.607L58.0364 275.851L68.5464 278.539L71.0358 293.654L73.5251 278.544L84.2788 275.974L73.5251 273.607Z" fill="#F7941D"/>
<path d="M90.2322 293.442L88.8441 285.016L87.4513 293.442L81.5893 294.693L87.4513 296.194L88.8396 304.623L90.2322 296.194L96.2293 294.763L90.2322 293.442Z" fill="#F7941D"/>
<path d="M198.261 293.442L196.873 285.016L195.485 293.442L189.622 294.693L195.485 296.194L196.873 304.623L198.261 296.194L204.258 294.763L198.261 293.442Z" fill="#F7941D"/>
<path d="M263.38 344.658L261.443 332.914L259.506 344.658L251.333 346.402L259.506 348.494L261.443 360.246L263.38 348.499L271.74 346.498L263.38 344.658Z" fill="#F7941D"/>
<path d="M383.699 229.446L381.762 217.698L379.83 229.446L371.657 231.189L379.826 233.283L381.762 245.035L383.699 233.283L392.063 231.285L383.699 229.446Z" fill="#FFC212"/>
<path d="M198.518 52.0864L195.55 34.066L192.578 52.0821L180.039 54.7615L192.578 57.9714L195.55 76.0005L198.518 57.9759L211.348 54.9093L198.518 52.0864Z" fill="#FFC212"/>
</g>
</g>
<defs>
<clipPath id="clip0_0_211">
<rect width="397" height="416" fill="white" transform="translate(0.942871 0.326172)"/>
</clipPath>
</defs>
</svg>
