<svg width="599" height="605" viewBox="0 0 599 605" fill="none" xmlns="http://www.w3.org/2000/svg">
<path d="M299.5 0L335.24 54.0042L384.751 12.265L403.824 74.1363L463.09 48.0219L463.964 112.761L528.176 104.403L510.77 166.766L574.736 176.845L540.472 231.778L599 259.45L550.636 302.5L599 345.55L540.472 373.222L574.736 428.155L510.77 438.234L528.176 500.597L463.964 492.239L463.09 556.978L403.824 530.864L384.751 592.735L335.24 550.996L299.5 605L263.76 550.996L214.249 592.735L195.176 530.864L135.91 556.978L135.063 492.239L70.8242 500.597L88.2297 438.234L24.2638 428.155L58.5557 373.222L0 345.55L48.3637 302.5L0 259.45L58.5557 231.778L24.2638 176.845L88.2297 166.766L70.8242 104.403L135.063 112.761L135.91 48.0219L195.176 74.1363L214.249 12.265L263.76 54.0042L299.5 0Z" fill="#0D251D"/>
</svg>
